<svg xmlns="http://www.w3.org/2000/svg" xmlns:xlink="http://www.w3.org/1999/xlink" xmlns:lucid="lucid" width="3034.48" height="2104.13"><g transform="translate(645.8333333333334 753.294469735109)" lucid:page-tab-id="0_0"><path d="M-1000-1000h3500v2500h-3500z" fill="#f2f3f5"/><path d="M-165.33-189.67c0 22.1-35.82 40-80 40-44.2 0-80-17.9-80-40s35.8-40 80-40c44.18 0 80 17.9 80 40z" stroke="#3a414a" fill-opacity="0"/><path d="M-45.33-221.67a8 8 0 0 1 8-8h99a8 8 0 0 1 8 8v4.93a17.07 17.07 0 0 1-5 12.07 17.07 17.07 0 0 1-12.07 5h-89.93a8 8 0 0 1-8-8z" fill="#fff"/><path d="M69.67-229.67v20l-10 10h-105" stroke="#3a414a" fill="none"/><path d="M-45.33-221.67a8 8 0 0 1 8-8h184a8 8 0 0 1 8 8v64a8 8 0 0 1-8 8h-184a8 8 0 0 1-8-8z" stroke="#3a414a" fill="none"/><use xlink:href="#a" transform="matrix(1,0,0,1,-37.33333333333337,-229.66666666666652) translate(0 18.6)"/><path d="M634.67-184.67c0 30.38-49.25 55-110 55s-110-24.62-110-55c0-30.37 49.25-55 110-55s110 24.63 110 55zM127.65-29.67c0 22.1-35.82 40-80 40s-80-17.9-80-40 35.82-40 80-40 80 17.9 80 40zM167.65 130.33c0 22.1-49.25 40-110 40s-110-17.9-110-40 49.25-40 110-40 110 17.9 110 40zM938.15 130.33c0 22.1-49.25 40-110 40s-110-17.9-110-40 49.25-40 110-40 110 17.9 110 40zM937.15 430.33c0 22.1-49.25 40-110 40s-110-17.9-110-40 49.25-40 110-40 110 17.9 110 40zM1946.15 422.33c0 22.1-49.25 40-110 40s-110-17.9-110-40 49.25-40 110-40 110 17.9 110 40zM1948.15 590.33c0 22.1-49.25 40-110 40s-110-17.9-110-40 49.25-40 110-40 110 17.9 110 40zM1948.15 750.33c0 22.1-49.25 40-110 40s-110-17.9-110-40 49.25-40 110-40 110 17.9 110 40zM1948.15 910.33c0 22.1-49.25 40-110 40s-110-17.9-110-40 49.25-40 110-40 110 17.9 110 40zM1948.15 250.33c0 22.1-49.25 40-110 40s-110-17.9-110-40 49.25-40 110-40 110 17.9 110 40z" stroke="#3a414a" fill-opacity="0"/><path d="M268.15 378.33a8 8 0 0 1 8-8h99a8 8 0 0 1 8 8v4.93a17.07 17.07 0 0 1-5 12.07 17.07 17.07 0 0 1-12.07 5h-89.93a8 8 0 0 1-8-8z" fill="#fff"/><path d="M383.15 370.33v20l-10 10h-105" stroke="#3a414a" fill="none"/><path d="M268.15 378.33a8 8 0 0 1 8-8h244a8 8 0 0 1 8 8v84a8 8 0 0 1-8 8h-244a8 8 0 0 1-8-8z" stroke="#3a414a" fill="none"/><use xlink:href="#a" transform="matrix(1,0,0,1,276.14963056732324,370.3333333333334) translate(0 18.6)"/><path d="M1408.15 218.33a8 8 0 0 1 8-8h99a8 8 0 0 1 8 8v4.93a17.07 17.07 0 0 1-5 12.07 17.07 17.07 0 0 1-12.07 5h-89.93a8 8 0 0 1-8-8z" fill="#fff"/><path d="M1523.15 210.33v20l-10 10h-105" stroke="#3a414a" fill="none"/><path d="M1408.15 218.33a8 8 0 0 1 8-8h184.1a8 8 0 0 1 8 8v64a8 8 0 0 1-8 8h-184.1a8 8 0 0 1-8-8z" stroke="#3a414a" fill="none"/><use xlink:href="#a" transform="matrix(1,0,0,1,1416.1496305673231,210.33333333333348) translate(0 18.6)"/><path d="M1068.15 383.33a8 8 0 0 1 8-8h99a8 8 0 0 1 8 8v4.93a17.07 17.07 0 0 1-5 12.07 17.07 17.07 0 0 1-12.07 5h-89.93a8 8 0 0 1-8-8z" fill="#fff"/><path d="M1183.15 375.33v20l-10 10h-105" stroke="#3a414a" fill="none"/><path d="M1068.15 383.33a8 8 0 0 1 8-8h164a8 8 0 0 1 8 8v79a8 8 0 0 1-8 8h-164a8 8 0 0 1-8-8z" stroke="#3a414a" fill="none"/><use xlink:href="#a" transform="matrix(1,0,0,1,1076.1496305673231,375.33333333333354) translate(0 18.6)"/><path d="M1948.15 1090.33c0 22.1-49.25 40-110 40s-110-17.9-110-40 49.25-40 110-40 110 17.9 110 40zM2368.15 1090.33c0 22.1-49.25 40-110 40s-110-17.9-110-40 49.25-40 110-40 110 17.9 110 40zM1948.15 1290.33c0 22.1-49.25 40-110 40s-110-17.9-110-40 49.25-40 110-40 110 17.9 110 40zM127.65 630.33c0 22.1-35.82 40-80 40s-80-17.9-80-40 35.82-40 80-40 80 17.9 80 40zM937.15 630.33c0 22.1-49.25 40-110 40s-110-17.9-110-40 49.25-40 110-40 110 17.9 110 40z" stroke="#3a414a" fill-opacity="0"/><path d="M268.15 598.33a8 8 0 0 1 8-8h99a8 8 0 0 1 8 8v4.93a17.07 17.07 0 0 1-5 12.07 17.07 17.07 0 0 1-12.07 5h-89.93a8 8 0 0 1-8-8z" fill="#fff"/><path d="M383.15 590.33v20l-10 10h-105" stroke="#3a414a" fill="none"/><path d="M268.15 598.33a8 8 0 0 1 8-8h244a8 8 0 0 1 8 8v84a8 8 0 0 1-8 8h-244a8 8 0 0 1-8-8z" stroke="#3a414a" fill="none"/><use xlink:href="#a" transform="matrix(1,0,0,1,276.14963056732324,590.3333333333335) translate(0 18.6)"/><path d="M127.65 950.33c0 22.1-35.82 40-80 40s-80-17.9-80-40 35.82-40 80-40 80 17.9 80 40zM948.15 950.33c0 22.1-53.73 40-120 40-66.27 0-120-17.9-120-40s53.73-40 120-40c66.27 0 120 17.9 120 40zM948.15 1090.33c0 22.1-53.73 40-120 40-66.27 0-120-17.9-120-40s53.73-40 120-40c66.27 0 120 17.9 120 40zM117.65 1290.33c0 22.1-35.82 40-80 40s-80-17.9-80-40 35.82-40 80-40 80 17.9 80 40z" stroke="#3a414a" fill-opacity="0"/><path d="M-45.33-441.92a8 8 0 0 1 8-8h99a8 8 0 0 1 8 8v4.93a17.07 17.07 0 0 1-5 12.08 17.07 17.07 0 0 1-12.07 5h-89.93a8 8 0 0 1-8-8z" fill="#fff"/><path d="M69.67-449.92v20l-10 10h-105" stroke="#3a414a" fill="none"/><path d="M-45.33-441.92a8 8 0 0 1 8-8h184a8 8 0 0 1 8 8v64a8 8 0 0 1-8 8h-184a8 8 0 0 1-8-8z" stroke="#3a414a" fill="none"/><use xlink:href="#a" transform="matrix(1,0,0,1,-37.33333333333343,-449.92239583733215) translate(0 18.6)"/><path d="M634.67-404.92c0 30.37-49.25 55-110 55s-110-24.63-110-55c0-30.38 49.25-55 110-55s110 24.62 110 55zM1066.87-269.75c0 30.37-49.25 55-110 55s-110-24.63-110-55c0-30.38 49.25-55 110-55s110 24.62 110 55zM1066.87-490c0 30.37-49.25 55-110 55s-110-24.63-110-55c0-30.38 49.25-55 110-55s110 24.62 110 55zM-240.46-492.83c0 28.82-39.52 52.18-88.28 52.18s-88.28-23.36-88.28-52.18S-377.5-545-328.74-545s88.28 23.35 88.28 52.17z" stroke="#3a414a" fill-opacity="0"/><path d="M-565.58-109.92c0 10.9-8.85 19.75-19.75 19.75s-19.75-8.84-19.75-19.75c0-10.9 8.84-19.75 19.75-19.75 10.9 0 19.75 8.85 19.75 19.75z" stroke="#333" fill="#fff"/><path d="M-585.33-90.17v47.3a27.6 27.6 0 0 0 4.28 14.76l35.72 56.43m-40-63.2l-40 63.2m0-98.75h80" stroke="#333" fill="none"/><path d="M-625.33-121.67a8 8 0 0 1 8-8h64a8 8 0 0 1 8 8v164a8 8 0 0 1-8 8h-64a8 8 0 0 1-8-8z" fill="none"/><use xlink:href="#b" transform="matrix(1,0,0,1,-705.3333333333334,28.333333333333485) translate(101.28395061728395 14.555555555555555)"/><path d="M-365.33-211.67a8 8 0 0 1 8-8h224a8 8 0 0 1 8 8v44a8 8 0 0 1-8 8h-224a8 8 0 0 1-8-8z" fill="none"/><use xlink:href="#c" transform="matrix(1,0,0,1,-365.33333333333337,-219.66666666666652) translate(61.05 33.6)"/><use xlink:href="#d" transform="matrix(1,0,0,1,-365.33333333333337,-219.66666666666652) translate(104 33.6)"/><use xlink:href="#e" transform="matrix(1,0,0,1,-365.33333333333337,-219.66666666666652) translate(134 33.6)"/><path d="M-65.33-201.67a8 8 0 0 1 8-8h224a8 8 0 0 1 8 8v44a8 8 0 0 1-8 8h-224a8 8 0 0 1-8-8z" fill="none"/><use xlink:href="#f" transform="matrix(1,0,0,1,-65.33333333333337,-209.66666666666652) translate(39.125 33.6)"/><use xlink:href="#g" transform="matrix(1,0,0,1,-65.33333333333337,-209.66666666666652) translate(78.975 33.6)"/><use xlink:href="#h" transform="matrix(1,0,0,1,-65.33333333333337,-209.66666666666652) translate(121.875 33.6)"/><use xlink:href="#d" transform="matrix(1,0,0,1,-65.33333333333337,-209.66666666666652) translate(141.875 33.6)"/><use xlink:href="#i" transform="matrix(1,0,0,1,-65.33333333333337,-209.66666666666652) translate(171.875 33.6)"/><path d="M414.67-201.67a8 8 0 0 1 8-8h224a8 8 0 0 1 8 8v44a8 8 0 0 1-8 8h-224a8 8 0 0 1-8-8z" fill="none"/><use xlink:href="#j" transform="matrix(1,0,0,1,414.66666666666663,-209.66666666666652) translate(39.599999999999994 33.6)"/><use xlink:href="#k" transform="matrix(1,0,0,1,414.66666666666663,-209.66666666666652) translate(109.5 33.6)"/><use xlink:href="#l" transform="matrix(1,0,0,1,414.66666666666663,-209.66666666666652) translate(151.4 33.6)"/><path d="M-72.35-51.67a8 8 0 0 1 8-8h224a8 8 0 0 1 8 8v44a8 8 0 0 1-8 8h-224a8 8 0 0 1-8-8z" fill="none"/><use xlink:href="#m" transform="matrix(1,0,0,1,-72.35036943267676,-59.666666666666515) translate(78.775 33.6)"/><use xlink:href="#n" transform="matrix(1,0,0,1,-72.35036943267676,-59.666666666666515) translate(122.32500000000002 33.6)"/><path d="M-71.85 108.33a8 8 0 0 1 8-8h224a8 8 0 0 1 8 8v44a8 8 0 0 1-8 8h-224a8 8 0 0 1-8-8z" fill="none"/><use xlink:href="#o" transform="matrix(1,0,0,1,-71.85036943267676,100.33333333333348) translate(59.55 33.6)"/><use xlink:href="#p" transform="matrix(1,0,0,1,-71.85036943267676,100.33333333333348) translate(126.5 33.6)"/><use xlink:href="#q" transform="matrix(1,0,0,1,-71.85036943267676,100.33333333333348) translate(141.5 33.6)"/><path d="M708.15 108.33a8 8 0 0 1 8-8h224a8 8 0 0 1 8 8v44a8 8 0 0 1-8 8h-224a8 8 0 0 1-8-8z" fill="none"/><use xlink:href="#r" transform="matrix(1,0,0,1,708.1496305673232,100.33333333333348) translate(84.5 33.6)"/><path d="M717.15 413.33a8 8 0 0 1 8-8h204a8 8 0 0 1 8 8v34a8 8 0 0 1-8 8h-204a8 8 0 0 1-8-8z" fill="none"/><use xlink:href="#s" transform="matrix(1,0,0,1,717.1496305673232,405.3333333333335) translate(61.05 28.6)"/><use xlink:href="#p" transform="matrix(1,0,0,1,717.1496305673232,405.3333333333335) translate(99 28.6)"/><use xlink:href="#e" transform="matrix(1,0,0,1,717.1496305673232,405.3333333333335) translate(114 28.6)"/><path d="M1726.15 405.33a8 8 0 0 1 8-8h204a8 8 0 0 1 8 8v34a8 8 0 0 1-8 8h-204a8 8 0 0 1-8-8z" fill="none"/><use xlink:href="#t" transform="matrix(1,0,0,1,1726.1496305673231,397.3333333333335) translate(84.525 28.6)"/><path d="M1728.15 573.33a8 8 0 0 1 8-8h204a8 8 0 0 1 8 8v34a8 8 0 0 1-8 8h-204a8 8 0 0 1-8-8z" fill="none"/><use xlink:href="#u" transform="matrix(1,0,0,1,1728.1496305673231,565.3333333333335) translate(92.55 28.6)"/><path d="M1728.15 733.33a8 8 0 0 1 8-8h204a8 8 0 0 1 8 8v34a8 8 0 0 1-8 8h-204a8 8 0 0 1-8-8z" fill="none"/><use xlink:href="#v" transform="matrix(1,0,0,1,1728.1496305673231,725.3333333333335) translate(87.05 28.6)"/><path d="M1728.15 893.33a8 8 0 0 1 8-8h204a8 8 0 0 1 8 8v34a8 8 0 0 1-8 8h-204a8 8 0 0 1-8-8z" fill="none"/><use xlink:href="#w" transform="matrix(1,0,0,1,1728.1496305673231,885.3333333333334) translate(94.575 28.6)"/><path d="M1728.15 233.33a8 8 0 0 1 8-8h204a8 8 0 0 1 8 8v34a8 8 0 0 1-8 8h-204a8 8 0 0 1-8-8z" fill="none"/><use xlink:href="#x" transform="matrix(1,0,0,1,1728.1496305673231,225.33333333333348) translate(96.5 28.6)"/><path d="M268.15 418.33a8 8 0 0 1 8-8h244a8 8 0 0 1 8 8v29a8 8 0 0 1-8 8h-244a8 8 0 0 1-8-8z" fill="none"/><use xlink:href="#y" transform="matrix(1,0,0,1,268.1496305673232,410.3333333333335) translate(21.07499999999999 15.299999999999999)"/><use xlink:href="#z" transform="matrix(1,0,0,1,268.1496305673232,410.3333333333335) translate(63.974999999999994 15.299999999999999)"/><use xlink:href="#A" transform="matrix(1,0,0,1,268.1496305673232,410.3333333333335) translate(97.975 15.299999999999999)"/><use xlink:href="#B" transform="matrix(1,0,0,1,268.1496305673232,410.3333333333335) translate(162.975 15.299999999999999)"/><use xlink:href="#C" transform="matrix(1,0,0,1,268.1496305673232,410.3333333333335) translate(209.925 15.299999999999999)"/><use xlink:href="#D" transform="matrix(1,0,0,1,268.1496305673232,410.3333333333335) translate(32.625 36.9)"/><use xlink:href="#E" transform="matrix(1,0,0,1,268.1496305673232,410.3333333333335) translate(78.575 36.9)"/><use xlink:href="#F" transform="matrix(1,0,0,1,268.1496305673232,410.3333333333335) translate(109.525 36.9)"/><use xlink:href="#G" transform="matrix(1,0,0,1,268.1496305673232,410.3333333333335) translate(185.375 36.9)"/><path d="M1412.35 250.33a8 8 0 0 1 8-8h184.1a8 8 0 0 1 7.98 8v20a8 8 0 0 1-8 8h-184.08a8 8 0 0 1-8-8z" fill="none"/><use xlink:href="#H" transform="matrix(1,0,0,1,1412.3472822307285,242.33333333333348) translate(5.550000000000011 21.6)"/><use xlink:href="#I" transform="matrix(1,0,0,1,1412.3472822307285,242.33333333333348) translate(33.500000000000014 21.6)"/><use xlink:href="#z" transform="matrix(1,0,0,1,1412.3472822307285,242.33333333333348) translate(63.500000000000014 21.6)"/><use xlink:href="#J" transform="matrix(1,0,0,1,1412.3472822307285,242.33333333333348) translate(97.50000000000001 21.6)"/><use xlink:href="#K" transform="matrix(1,0,0,1,1412.3472822307285,242.33333333333348) translate(142.5 21.6)"/><path d="M1028.15 418.33a8 8 0 0 1 8-8h244a8 8 0 0 1 8 8v29a8 8 0 0 1-8 8h-244a8 8 0 0 1-8-8z" fill="none"/><use xlink:href="#y" transform="matrix(1,0,0,1,1028.1496305673231,410.3333333333335) translate(61.575 26.1)"/><use xlink:href="#z" transform="matrix(1,0,0,1,1028.1496305673231,410.3333333333335) translate(104.47500000000001 26.1)"/><use xlink:href="#d" transform="matrix(1,0,0,1,1028.1496305673231,410.3333333333335) translate(138.47500000000002 26.1)"/><use xlink:href="#L" transform="matrix(1,0,0,1,1028.1496305673231,410.3333333333335) translate(168.47500000000002 26.1)"/><path d="M1728.15 1073.33a8 8 0 0 1 8-8h204a8 8 0 0 1 8 8v34a8 8 0 0 1-8 8h-204a8 8 0 0 1-8-8z" fill="none"/><use xlink:href="#m" transform="matrix(1,0,0,1,1728.1496305673231,1065.3333333333335) translate(71.225 28.6)"/><use xlink:href="#M" transform="matrix(1,0,0,1,1728.1496305673231,1065.3333333333335) translate(114.775 28.6)"/><path d="M2148.15 1073.33a8 8 0 0 1 8-8h204a8 8 0 0 1 8 8v34a8 8 0 0 1-8 8h-204a8 8 0 0 1-8-8z" fill="none"/><use xlink:href="#N" transform="matrix(1,0,0,1,2148.149630567323,1065.3333333333335) translate(42.525000000000006 28.6)"/><use xlink:href="#p" transform="matrix(1,0,0,1,2148.149630567323,1065.3333333333335) translate(89.525 28.6)"/><use xlink:href="#O" transform="matrix(1,0,0,1,2148.149630567323,1065.3333333333335) translate(104.525 28.6)"/><path d="M1728.15 1273.33a8 8 0 0 1 8-8h204a8 8 0 0 1 8 8v34a8 8 0 0 1-8 8h-204a8 8 0 0 1-8-8z" fill="none"/><use xlink:href="#m" transform="matrix(1,0,0,1,1728.1496305673231,1265.3333333333335) translate(19.299999999999997 28.6)"/><use xlink:href="#P" transform="matrix(1,0,0,1,1728.1496305673231,1265.3333333333335) translate(62.85 28.6)"/><use xlink:href="#Q" transform="matrix(1,0,0,1,1728.1496305673231,1265.3333333333335) translate(114.8 28.6)"/><path d="M-72.35 608.33a8 8 0 0 1 8-8h224a8 8 0 0 1 8 8v44a8 8 0 0 1-8 8h-224a8 8 0 0 1-8-8z" fill="none"/><use xlink:href="#R" transform="matrix(1,0,0,1,-72.35036943267676,600.3333333333335) translate(81.225 33.6)"/><use xlink:href="#S" transform="matrix(1,0,0,1,-72.35036943267676,600.3333333333335) translate(119.77499999999999 33.6)"/><path d="M717.15 613.33a8 8 0 0 1 8-8h204a8 8 0 0 1 8 8v34a8 8 0 0 1-8 8h-204a8 8 0 0 1-8-8z" fill="none"/><use xlink:href="#T" transform="matrix(1,0,0,1,717.1496305673232,605.3333333333335) translate(62.55 28.6)"/><use xlink:href="#U" transform="matrix(1,0,0,1,717.1496305673232,605.3333333333335) translate(98.55 28.6)"/><use xlink:href="#V" transform="matrix(1,0,0,1,717.1496305673232,605.3333333333335) translate(123.55 28.6)"/><path d="M268.15 632.33a8 8 0 0 1 8-8h244a8 8 0 0 1 8 8v29a8 8 0 0 1-8 8h-244a8 8 0 0 1-8-8z" fill="none"/><use xlink:href="#y" transform="matrix(1,0,0,1,268.1496305673232,624.3333333333336) translate(1.625 14.4)"/><use xlink:href="#z" transform="matrix(1,0,0,1,268.1496305673232,624.3333333333336) translate(44.525000000000006 14.4)"/><use xlink:href="#A" transform="matrix(1,0,0,1,268.1496305673232,624.3333333333336) translate(78.525 14.4)"/><use xlink:href="#B" transform="matrix(1,0,0,1,268.1496305673232,624.3333333333336) translate(143.525 14.4)"/><use xlink:href="#W" transform="matrix(1,0,0,1,268.1496305673232,624.3333333333336) translate(190.47500000000002 14.4)"/><use xlink:href="#X" transform="matrix(1,0,0,1,268.1496305673232,624.3333333333336) translate(225.47500000000002 14.4)"/><use xlink:href="#z" transform="matrix(1,0,0,1,268.1496305673232,624.3333333333336) translate(35.57499999999999 36)"/><use xlink:href="#Y" transform="matrix(1,0,0,1,268.1496305673232,624.3333333333336) translate(69.57499999999999 36)"/><use xlink:href="#J" transform="matrix(1,0,0,1,268.1496305673232,624.3333333333336) translate(99.57499999999999 36)"/><use xlink:href="#Z" transform="matrix(1,0,0,1,268.1496305673232,624.3333333333336) translate(144.575 36)"/><use xlink:href="#aa" transform="matrix(1,0,0,1,268.1496305673232,624.3333333333336) translate(88.525 57.6)"/><path d="M-72.35 928.33a8 8 0 0 1 8-8h224a8 8 0 0 1 8 8v44a8 8 0 0 1-8 8h-224a8 8 0 0 1-8-8z" fill="none"/><use xlink:href="#ab" transform="matrix(1,0,0,1,-72.35036943267676,920.3333333333335) translate(48.575 33.6)"/><use xlink:href="#ac" transform="matrix(1,0,0,1,-72.35036943267676,920.3333333333335) translate(77.575 33.6)"/><use xlink:href="#ad" transform="matrix(1,0,0,1,-72.35036943267676,920.3333333333335) translate(97.575 33.6)"/><use xlink:href="#ae" transform="matrix(1,0,0,1,-72.35036943267676,920.3333333333335) translate(151.425 33.6)"/><path d="M708.15 932.33a8 8 0 0 1 8-8h224a8 8 0 0 1 8 8v44a8 8 0 0 1-8 8h-224a8 8 0 0 1-8-8z" fill="none"/><use xlink:href="#m" transform="matrix(1,0,0,1,708.1496305673232,924.3333333333335) translate(1.9000000000000057 33.6)"/><use xlink:href="#af" transform="matrix(1,0,0,1,708.1496305673232,924.3333333333335) translate(45.45000000000001 33.6)"/><use xlink:href="#ag" transform="matrix(1,0,0,1,708.1496305673232,924.3333333333335) translate(139.25 33.6)"/><use xlink:href="#ah" transform="matrix(1,0,0,1,708.1496305673232,924.3333333333335) translate(189.25 33.6)"/><path d="M708.15 1078.33a8 8 0 0 1 8-8h224a8 8 0 0 1 8 8v44a8 8 0 0 1-8 8h-224a8 8 0 0 1-8-8z" fill="none"/><use xlink:href="#ai" transform="matrix(1,0,0,1,708.1496305673232,1070.3333333333335) translate(27.69999999999999 22.799999999999997)"/><use xlink:href="#ad" transform="matrix(1,0,0,1,708.1496305673232,1070.3333333333335) translate(126.55 22.799999999999997)"/><use xlink:href="#aj" transform="matrix(1,0,0,1,708.1496305673232,1070.3333333333335) translate(180.4 22.799999999999997)"/><use xlink:href="#ak" transform="matrix(1,0,0,1,708.1496305673232,1070.3333333333335) translate(54.55 44.4)"/><use xlink:href="#al" transform="matrix(1,0,0,1,708.1496305673232,1070.3333333333335) translate(143.5 44.4)"/><path d="M-82.35 1268.33a8 8 0 0 1 8-8h224a8 8 0 0 1 8 8v44a8 8 0 0 1-8 8h-224a8 8 0 0 1-8-8z" fill="none"/><use xlink:href="#m" transform="matrix(1,0,0,1,-82.35036943267676,1260.3333333333335) translate(50.3 33.6)"/><use xlink:href="#am" transform="matrix(1,0,0,1,-82.35036943267676,1260.3333333333335) translate(93.85 33.6)"/><path d="M74.67-221.67a8 8 0 0 1 8-8h224a8 8 0 0 1 8 8v44a8 8 0 0 1-8 8h-224a8 8 0 0 1-8-8z" fill="none"/><use xlink:href="#an" transform="matrix(1,0,0,1,74.66666666666663,-229.66666666666652) translate(87.05 33.6)"/><path d="M1727.65 253h-118.4" stroke="#3a414a" fill="none"/><path d="M1728.15 253.48h-.5v-.95h.5zM1609.25 253.48h-.5v-.95h.5z" stroke="#3a414a" stroke-width=".05" fill="#3a414a"/><path d="M1249.15 422.83H1360" stroke="#3a414a" fill="none"/><path d="M1249.16 423.3h-.5v-.94h.5z" stroke="#3a414a" stroke-width=".05" fill="#3a414a"/><path d="M1360 422.83h.5" stroke="#3a414a" fill="none"/><path d="M251.03 106.33a6 6 0 0 1 6-6h101.72a6 6 0 0 1 6 6v19.35a6 6 0 0 1-6 6H257.03a6 6 0 0 1-6-6z" fill="none"/><use xlink:href="#ao" transform="matrix(1,0,0,1,256.03392712476517,105.33333333333348) translate(0 14.555555555555555)"/><path d="M553.7 396.33a6 6 0 0 1 6-6h101.72a6 6 0 0 1 6 6v19.35a6 6 0 0 1-6 6H559.7a6 6 0 0 1-6-6z" fill="none"/><use xlink:href="#ao" transform="matrix(1,0,0,1,558.7021191534286,395.3333333333335) translate(0 14.555555555555555)"/><path d="M490.4 910.07a8 8 0 0 1 8-8h224a8 8 0 0 1 8 8v44a8 8 0 0 1-8 8h-224a8 8 0 0 1-8-8z" fill="none"/><use xlink:href="#an" transform="matrix(1,0,0,1,490.4054583272391,902.0652529131751) translate(87.05 33.6)"/><path d="M574.3 1071.33a6 6 0 0 1 6-6h60.22a6 6 0 0 1 6 6v19.35a6 6 0 0 1-6 6H580.3a6 6 0 0 1-6-6z" fill="none"/><use xlink:href="#ap" transform="matrix(1,0,0,1,579.2893472161282,1070.3333333333335) translate(0 14.555555555555555)"/><path d="M1587.9 1071.33a6 6 0 0 1 6-6h60.25a6 6 0 0 1 6 6v19.35a6 6 0 0 1-6 6h-60.24a6 6 0 0 1-6-6z" fill="none"/><use xlink:href="#ap" transform="matrix(1,0,0,1,1592.9145243792043,1070.3333333333335) translate(0 14.555555555555555)"/><path d="M2048.17 1071.33a6 6 0 0 1 6-6h60.23a6 6 0 0 1 6 6v19.35a6 6 0 0 1-6 6h-60.23a6 6 0 0 1-6-6z" fill="none"/><use xlink:href="#ap" transform="matrix(1,0,0,1,2053.166724301951,1070.3333333333335) translate(0 14.555555555555555)"/><path d="M1248.15 403.54a6 6 0 0 1 6-6h60.23a6 6 0 0 1 6 6v19.34a6 6 0 0 1-6 6h-60.23a6 6 0 0 1-6-6z" fill="none"/><use xlink:href="#ap" transform="matrix(1,0,0,1,1253.1496305673231,402.5356762018039) translate(0 14.555555555555555)"/><path d="M529.15 626.96h187.5" stroke="#3a414a" fill="none"/><path d="M529.16 627.44h-.5v-.95h.5zM717.15 627.44h-.5v-.95h.5z" stroke="#3a414a" stroke-width=".05" fill="#3a414a"/><path d="M574.3 605a6 6 0 0 1 6-6h60.22a6 6 0 0 1 6 6v19.33a6 6 0 0 1-6 6H580.3a6 6 0 0 1-6-6z" fill="none"/><use xlink:href="#ap" transform="matrix(1,0,0,1,579.2893472161282,603.9900000000001) translate(0 14.555555555555555)"/><path d="M-65.33-421.92a8 8 0 0 1 8-8h224a8 8 0 0 1 8 8v44a8 8 0 0 1-8 8h-224a8 8 0 0 1-8-8z" fill="none"/><use xlink:href="#ab" transform="matrix(1,0,0,1,-65.33333333333343,-429.92239583733215) translate(82.025 33.6)"/><use xlink:href="#aq" transform="matrix(1,0,0,1,-65.33333333333343,-429.92239583733215) translate(111.025 33.6)"/><path d="M414.67-421.92a8 8 0 0 1 8-8h204a8 8 0 0 1 8 8v44a8 8 0 0 1-8 8h-204a8 8 0 0 1-8-8z" fill="none"/><use xlink:href="#N" transform="matrix(1,0,0,1,414.66666666666663,-429.92239583733215) translate(15.549999999999997 22.799999999999997)"/><use xlink:href="#B" transform="matrix(1,0,0,1,414.66666666666663,-429.92239583733215) translate(62.55 22.799999999999997)"/><use xlink:href="#ar" transform="matrix(1,0,0,1,414.66666666666663,-429.92239583733215) translate(109.5 22.799999999999997)"/><use xlink:href="#ac" transform="matrix(1,0,0,1,414.66666666666663,-429.92239583733215) translate(174.45 22.799999999999997)"/><use xlink:href="#as" transform="matrix(1,0,0,1,414.66666666666663,-429.92239583733215) translate(194.45 22.799999999999997)"/><use xlink:href="#at" transform="matrix(1,0,0,1,414.66666666666663,-429.92239583733215) translate(87.55 44.4)"/><path d="M74.67-441.92a8 8 0 0 1 8-8h224a8 8 0 0 1 8 8v44a8 8 0 0 1-8 8h-224a8 8 0 0 1-8-8z" fill="none"/><use xlink:href="#au" transform="matrix(1,0,0,1,74.66666666666657,-449.92239583733215) translate(88.5 22.799999999999997)"/><use xlink:href="#av" transform="matrix(1,0,0,1,74.66666666666657,-449.92239583733215) translate(120 44.4)"/><path d="M1417.9-458.22c0 10.9-8.84 19.75-19.75 19.75-10.9 0-19.75-8.84-19.75-19.75 0-10.9 8.84-19.75 19.75-19.75 10.9 0 19.75 8.85 19.75 19.75z" stroke="#333" fill="#fff"/><path d="M1398.15-438.47v47.3a27.6 27.6 0 0 0 4.28 14.76l35.72 56.43m-40-63.2l-40 63.2m0-98.75h80" stroke="#333" fill="none"/><path d="M1358.15-469.97a8 8 0 0 1 8-8h64a8 8 0 0 1 8 8v164a8 8 0 0 1-8 8h-64a8 8 0 0 1-8-8z" fill="none"/><use xlink:href="#aw" transform="matrix(1,0,0,1,1278.1496305673231,-319.9655007763612) translate(65.28395061728395 14.555555555555555)"/><use xlink:href="#ax" transform="matrix(1,0,0,1,1278.1496305673231,-319.9655007763612) translate(120.44444444444446 14.555555555555555)"/><use xlink:href="#ay" transform="matrix(1,0,0,1,1278.1496305673231,-319.9655007763612) translate(140.19753086419755 14.555555555555555)"/><path d="M846.87-286.75a8 8 0 0 1 8-8h224a8 8 0 0 1 8 8v44a8 8 0 0 1-8 8h-224a8 8 0 0 1-8-8z" fill="none"/><use xlink:href="#az" transform="matrix(1,0,0,1,846.8675435722643,-294.7529744680836) translate(57.599999999999994 33.6)"/><use xlink:href="#aA" transform="matrix(1,0,0,1,846.8675435722643,-294.7529744680836) translate(122.45 33.6)"/><path d="M846.87-507a8 8 0 0 1 8-8h204a8 8 0 0 1 8 8v44a8 8 0 0 1-8 8h-204a8 8 0 0 1-8-8z" fill="none"/><use xlink:href="#aB" transform="matrix(1,0,0,1,846.8675435722643,-515.0087036387492) translate(50.025 33.6)"/><use xlink:href="#aA" transform="matrix(1,0,0,1,846.8675435722643,-515.0087036387492) translate(110.025 33.6)"/><path d="M-239.96-492.83" stroke="#3a414a" fill="none"/><path stroke="#3a414a" stroke-width=".05" fill="#3a414a"/><path d="M-239.96-492.83" stroke="#3a414a" fill="none"/><path d="M-417.02-507a8 8 0 0 1 8-8h160.56a8 8 0 0 1 8 8v39.08a8 8 0 0 1-8 8h-160.56a8 8 0 0 1-8-8z" fill="none"/><use xlink:href="#aC" transform="matrix(1,0,0,1,-417.0228290353202,-515.0087036387492) translate(27.574999999999996 20.799999999999997)"/><use xlink:href="#aD" transform="matrix(1,0,0,1,-417.0228290353202,-515.0087036387492) translate(107.475 20.799999999999997)"/><use xlink:href="#aE" transform="matrix(1,0,0,1,-417.0228290353202,-515.0087036387492) translate(43.1 42.4)"/><use xlink:href="#aF" transform="matrix(1,0,0,1,-417.0228290353202,-515.0087036387492) translate(48.1 42.4)"/><use xlink:href="#at" transform="matrix(1,0,0,1,-417.0228290353202,-515.0087036387492) translate(89 42.4)"/><path d="M-562.02-12.53l8.85-6.93 10.33-8.82 11-10.22 12.34-12.48 15.94-17.56 54.87-63.88 9.13-9.22 7.6-7.06 6.73-5.76 6.2-4.87 5.88-4.2 5.63-3.7 5.5-3.3 5.4-2.93 5.38-2.63 5.4-2.36 5.46-2.13 5.57-1.9 5.72-1.68 5.9-1.48 6.14-1.27 6.45-1.05 6.8-.82 6.86-.54" stroke="#3a414a" stroke-width="3" stroke-linejoin="round" fill="none"/><path d="M-562-12.55l-1.2.95" stroke="#3a414a" stroke-width="3" fill="none"/><path d="M-328.78-189.54l-12.58 8.17-.64-15.26z" stroke="#3a414a" stroke-width="3" fill="#3a414a"/><path d="M-159.12-195.2l2.56-5.12 3.24-7.22 3.28-8.2 3.37-9.56 3.53-11.58 3.93-15.17 5.6-26.37 10.74-53.84 3.06-11.8 2.57-8.43 2.33-6.6 2.17-5.43 2.06-4.6 2-3.98 1.93-3.5 1.9-3.1 1.86-2.8 1.84-2.52 1.84-2.3 1.84-2.1 1.84-1.96 1.86-1.8 1.88-1.7 1.9-1.56 1.95-1.46 2-1.38 2.04-1.28 2.12-1.2 2.18-1.14 2.27-1.06 2.37-1 2.5-.9 2.62-.84 2.78-.77 2.96-.68 3.17-.6 3.4-.48.7-.07" stroke="#3a414a" stroke-width="3" stroke-linejoin="round" fill="none"/><path d="M-159.1-195.23l-.7 1.38" stroke="#3a414a" stroke-width="3" fill="none"/><path d="M-48.77-409.7l-12.3 8.6-1.16-15.23z" stroke="#3a414a" stroke-width="3" fill="#3a414a"/><path d="M-158.3-196.8h101.36" stroke="#3a414a" stroke-width="3" stroke-linejoin="round" fill="none"/><path d="M-158.26-196.8h-1.53" stroke="#3a414a" stroke-width="3" fill="none"/><path d="M-48.78-196.8l-12.9 7.63v-15.28z" stroke="#3a414a" stroke-width="3" fill="#3a414a"/><path d="M-159.53-195.2l3.18 4.34 4.13 6.17 4.28 7.02 4.53 8.18 5 10.02 6.14 13.7 25.45 62.46 3.7 7.45 3.2 5.74 2.85 4.68 2.64 3.96 2.5 3.42 2.4 3 2.3 2.67 2.28 2.4 2.23 2.16 2.22 1.98 2.2 1.8 2.22 1.68 2.23 1.54 2.27 1.42 2.3 1.32 2.35 1.22 2.42 1.13 2.5 1.04 2.6.94 2.7.87 2.84.8 3 .68 3.17.6 3.4.48.33.04" stroke="#3a414a" stroke-width="3" stroke-linejoin="round" fill="none"/><path d="M-159.5-195.17l-.9-1.24" stroke="#3a414a" stroke-width="3" fill="none"/><path d="M-35.8-29.9l-13.46 6.6 1.2-15.23z" stroke="#3a414a" stroke-width="3" fill="#3a414a"/><path d="M-159.97-194.97l2.35 7.7 2.68 10.28 2.54 11.77 2.38 13.8 2.17 16.78 1.9 21.93 1.54 35.68 2.33 93.4 1.46 16.84 1.55 12.12 1.63 9.46 1.68 7.75 1.7 6.52 1.7 5.6 1.74 4.92 1.73 4.34 1.75 3.9 1.76 3.5 1.77 3.2 1.8 2.92 1.8 2.7 1.82 2.5 1.86 2.3 1.88 2.18 1.93 2.03 1.95 1.92 2.02 1.8 2.08 1.7 2.14 1.62 2.22 1.53 2.3 1.45 2.4 1.38 2.53 1.3 2.65 1.24 2.8 1.16 2.96 1.1 3.16 1 3.4.93 3.63.84 3.94.74 4.3.6 4.05.42" stroke="#3a414a" stroke-width="3" stroke-linejoin="round" fill="none"/><path d="M-159.96-194.93l-.45-1.47" stroke="#3a414a" stroke-width="3" fill="none"/><path d="M-55.8 130.16l-13.32 6.9.88-15.26z" stroke="#3a414a" stroke-width="3" fill="#3a414a"/><path d="M-161.1-194.33l2.78 20.83 2.3 25.37 1.45 29.37.25 34.9-1.52 43.1-4.46 57.57-12.1 99.42-30.84 225.1-3.44 44.23-1.1 31.06.17 23.9.93 19.3 1.47 16.07 1.83 13.7 2.1 11.88 2.3 10.44 2.45 9.27 2.58 8.33 2.7 7.54 2.77 6.87 2.86 6.33 2.94 5.82 3.03 5.4 3.1 5.06 3.2 4.73 3.28 4.45 3.37 4.2 3.5 3.97 3.58 3.77 3.73 3.6 3.87 3.42 4.02 3.28 4.2 3.14 4.4 3 4.62 2.9 4.88 2.75 5.16 2.66 5.48 2.53 5.85 2.4 6.28 2.27 6.77 2.14 7.32 2 7.98 1.8 8.75 1.6 9.66 1.35 10.74 1.04 11.94.64" stroke="#3a414a" stroke-width="3" stroke-linejoin="round" fill="none"/><path d="M-161.1-194.3l-.2-1.5" stroke="#3a414a" stroke-width="3" fill="none"/><path d="M-35.8 630.25l-13.1 7.3.4-15.28z" stroke="#3a414a" stroke-width="3" fill="#3a414a"/><path d="M-159.87-195.5l2.62 29.37 1.66 35.2.22 40.9-1.8 48.83-4.8 60.72-10 81.82-24.56 147.38-53.65 297.82-7.7 62.98-3.46 43.76-1.24 33.45.13 26.87 1.05 22.3 1.7 18.95 2.14 16.38 2.5 14.36 2.78 12.72 3 11.4 3.17 10.32 3.33 9.4 3.46 8.6 3.58 7.93 3.7 7.36 3.83 6.86 3.93 6.4 4.06 6.04 4.2 5.7 4.3 5.4 4.48 5.1 4.63 4.9 4.82 4.65 5 4.45 5.22 4.27 5.47 4.1 5.74 3.95 6.05 3.8 6.4 3.64 6.78 3.5 7.23 3.36 7.75 3.2 8.33 3.04 9 2.87 9.77 2.66 10.68 2.44 11.75 2.17 13 1.84 14.52 1.44 16.34.93 4.8.1" stroke="#3a414a" stroke-width="3" stroke-linejoin="round" fill="none"/><path d="M-159.86-195.45L-160-197" stroke="#3a414a" stroke-width="3" fill="none"/><path d="M-35.8 950.28l-13.04 7.4.27-15.26z" stroke="#3a414a" stroke-width="3" fill="#3a414a"/><path d="M-157.68-197.88l2.14 38.48.63 45.75-1.52 53.34-4.5 63.9-9.03 79.88-16.93 108.57-41.36 205.03-77.88 365.7-13.08 83.75-6.52 57.62-3.1 43.78-1 35.05.4 29 1.36 24.54 2.07 21.17 2.6 18.5 3.02 16.4 3.33 14.7 3.6 13.23 3.8 12.04 4.02 11.02 4.2 10.15 4.34 9.4 4.5 8.77 4.67 8.2 4.8 7.7 5 7.27 5.14 6.87 5.34 6.54 5.53 6.23 5.74 5.94 6 5.7 6.23 5.46 6.54 5.25 6.85 5.05 7.22 4.87 7.63 4.7 8.08 4.5 8.6 4.35 9.2 4.17 9.88 3.98 10.66 3.8 11.54 3.56 12.6 3.33 13.82 3.02 15.26 2.68 16.97 2.26 19.02 1.72 21.53 1.04 4.8.06" stroke="#3a414a" stroke-width="3" stroke-linejoin="round" fill="none"/><path d="M-157.68-197.84l-.08-1.54" stroke="#3a414a" stroke-width="3" fill="none"/><path d="M-45.8 1290.3l-13 7.45.2-15.27z" stroke="#3a414a" stroke-width="3" fill="#3a414a"/><path d="M155.56-408.05h248" stroke="#3a414a" stroke-width="3" stroke-linejoin="round" fill="none"/><path d="M155.6-408.05h-1.53" stroke="#3a414a" stroke-width="3" fill="none"/><path d="M411.72-408.05l-12.9 7.63v-15.27z" stroke="#3a414a" stroke-width="3" fill="#3a414a"/><path d="M157.9-184.6h245.66" stroke="#3a414a" stroke-width="3" stroke-linejoin="round" fill="none"/><path d="M157.94-184.6h-1.53" stroke="#3a414a" stroke-width="3" fill="none"/><path d="M411.72-184.6l-12.9 7.62v-15.27z" stroke="#3a414a" stroke-width="3" fill="#3a414a"/><path d="M167.27 132.4l529.77-1.65" stroke="#3a414a" stroke-width="3" stroke-linejoin="round" fill="none"/><path d="M167.3 132.4l-1.53.02" stroke="#3a414a" stroke-width="3" fill="none"/><path d="M705.2 130.72l-12.88 7.68-.05-15.28z" stroke="#3a414a" stroke-width="3" fill="#3a414a"/><path d="M168.56 133.85l2.16 6.63 2.53 9.06 2.44 10.36 2.3 12.13 2.18 14.74 2.02 19.25 1.9 31.32 3.5 81.56 1.56 14.8 1.57 10.65 1.6 8.33 1.6 6.82 1.6 5.75 1.6 4.95 1.62 4.33 1.6 3.84 1.63 3.43 1.62 3.1 1.64 2.83 1.64 2.58 1.66 2.4 1.68 2.2 1.7 2.06 1.73 1.92 1.76 1.8 1.82 1.7 1.85 1.6 1.9 1.5 1.97 1.43 2.04 1.36 2.12 1.28 2.2 1.2 2.33 1.16 2.43 1.08 2.58 1.02 2.73.95 2.9.87 3.14.8 3.37.7 3.65.63 3.98.5.66.05" stroke="#3a414a" stroke-width="3" stroke-linejoin="round" fill="none"/><path d="M168.58 133.88l-.48-1.46" stroke="#3a414a" stroke-width="3" fill="none"/><path d="M265.2 418.84l-13.38 6.77 1-15.23z" stroke="#3a414a" stroke-width="3" fill="#3a414a"/><path d="M530.15 427.9l175.9-.12" stroke="#3a414a" stroke-width="3" stroke-linejoin="round" fill="none"/><path d="M530.2 429.38h-1.55v-2.95h1.54z" stroke="#3a414a" stroke-width=".05" fill="#3a414a"/><path d="M714.2 427.77l-12.9 7.65v-15.28z" stroke="#3a414a" stroke-width="3" fill="#3a414a"/><path d="M130.72 631h125.82" stroke="#3a414a" stroke-width="3" stroke-linejoin="round" fill="none"/><path d="M130.76 631h-1.54" stroke="#3a414a" stroke-width="3" fill="none"/><path d="M264.7 631l-12.9 7.63v-15.27z" stroke="#3a414a" stroke-width="3" fill="#3a414a"/><path d="M128.98 953.88h568.06" stroke="#3a414a" stroke-width="3" stroke-linejoin="round" fill="none"/><path d="M129.02 953.88h-1.54" stroke="#3a414a" stroke-width="3" fill="none"/><path d="M705.2 953.88l-12.9 7.63v-15.26z" stroke="#3a414a" stroke-width="3" fill="#3a414a"/><path d="M121.9 1290.2l44.9-16.4 50.34-20.84 69.83-32.53 146.07-70.88 35.28-14.62 29.3-10.72 26.63-8.47 25.37-6.93 24.96-5.7 25.17-4.64 25.88-3.66 27.1-2.68 28.84-1.64 15.47-.27" stroke="#3a414a" stroke-width="3" stroke-linejoin="round" fill="none"/><path d="M121.94 1290.2l-1.44.52" stroke="#3a414a" stroke-width="3" fill="none"/><path d="M705.2 1090.07l-12.77 7.86-.27-15.27z" stroke="#3a414a" stroke-width="3" fill="#3a414a"/><path d="M938.43 426.35h118.1" stroke="#3a414a" stroke-width="3" stroke-linejoin="round" fill="none"/><path d="M938.47 426.35h-1.54" stroke="#3a414a" stroke-width="3" fill="none"/><path d="M1064.7 426.35l-12.9 7.63V418.7z" stroke="#3a414a" stroke-width="3" fill="#3a414a"/><path d="M941.58 427.94l11.1 9.82 11.93 11.48 11.72 12.24 11.55 13.15 11.5 14.24 11.52 15.57 11.68 17.27 12.04 19.5 12.68 22.62 13.9 27.4 16.58 36.5 83.08 204.02 11.7 23.1 10.37 18.5 9.58 15.5 9.1 13.43 8.76 11.85 2.54 3.25 8.66 10.45 9.2 10.22 9.83 10.02 10.47 9.83 11.2 9.65 12.02 9.52 12.9 9.37 13.94 9.25 15.08 9.1 16.38 9 17.86 8.86 19.57 8.7 21.55 8.5 23.84 8.3 26.53 7.98 29.7 7.6 33.5 7.1 38.02 6.4 43.54 5.46 50.3 4.17 58.66 2.4 21.38.22" stroke="#3a414a" stroke-width="3" stroke-linejoin="round" fill="none"/><path d="M941.6 427.97l-1.15-1.02" stroke="#3a414a" stroke-width="3" fill="none"/><path d="M1725.2 1089.58l-13 7.5.17-15.27z" stroke="#3a414a" stroke-width="3" fill="#3a414a"/><path d="M939.9 427.3l8.3 9.6 8.85 11.06 8.42 11.5 8.04 12.03 7.72 12.6 7.4 13.36 7.1 14.22 6.87 15.27 6.62 16.6 6.42 18.25 6.24 20.44 6.1 23.45 6.02 27.96 6.16 35.9 7.33 57.58 17.65 161.88 5.62 32.76 5.38 24.97 5.34 20.55 5.37 17.64 5.46 15.52 5.57 13.94 5.7 12.68 5.83 11.66 4.63 8.44 6.35 10.64 7 10.64 7.66 10.7 8.4 10.73 9.24 10.8 10.13 10.93 11.14 11.04 12.26 11.17 13.52 11.32 14.9 11.45 16.5 11.62 18.28 11.74 20.26 11.86 22.5 11.93 25 11.94 27.75 11.85 30.78 11.65 34 11.27 37.38 10.67 40.7 9.8 43.78 8.6 46.3 7.13 47.9 5.33 48.3 3.33 42.96 1.17" stroke="#3a414a" stroke-width="3" stroke-linejoin="round" fill="none"/><path d="M939.9 427.34l-1-1.16" stroke="#3a414a" stroke-width="3" fill="none"/><path d="M1725.2 1296.6l-13.03 7.42.25-15.28z" stroke="#3a414a" stroke-width="3" fill="#3a414a"/><path d="M1947.88 1095.98h189.16" stroke="#3a414a" stroke-width="3" stroke-linejoin="round" fill="none"/><path d="M1947.92 1095.98h-1.54" stroke="#3a414a" stroke-width="3" fill="none"/><path d="M2145.2 1095.98l-12.9 7.63v-15.26z" stroke="#3a414a" stroke-width="3" fill="#3a414a"/><path d="M1358.35 421.22l.88-3.32 1.2-5.37 1.08-6.17 1-7.25.8-8.83.57-11.58.1-18.94-.6-49.43.43-8.9.6-6.37.65-4.97.72-4.06.75-3.42.78-2.92.8-2.56.8-2.26.82-2.02.83-1.82.84-1.66.83-1.5.87-1.4.87-1.3.9-1.2.9-1.12.9-1.05.96-.98.97-.93 1-.9 1.03-.83 1.06-.8 1.1-.76 1.15-.7 1.2-.7 1.28-.64 1.33-.6 1.42-.6 1.5-.54 1.6-.5 1.74-.47 1.86-.42.72-.13" stroke="#3a414a" stroke-width="3" stroke-linejoin="round" fill="none"/><path d="M1358.36 421.18l-.4 1.5" stroke="#3a414a" stroke-width="3" fill="none"/><path d="M1404.72 250.7l-11.87 9.16-1.88-15.15z" stroke="#3a414a" stroke-width="3" fill="#3a414a"/><path d="M1358.2 422.33h356.34" stroke="#3a414a" stroke-width="3" stroke-linejoin="round" fill="none"/><path d="M1358.25 422.33h-1.54" stroke="#3a414a" stroke-width="3" fill="none"/><path d="M1722.7 422.33l-12.9 7.64V414.7z" stroke="#3a414a" stroke-width="3" fill="#3a414a"/><path d="M1360.06 421.08l21.15 10.25 23.7 12.72 27.07 16.06 43.86 28.75 67 44.8 20.03 11.87 16 8.6 14.1 6.84 13.05 5.66 12.48 4.8 12.2 4.1 12.12 3.54 12.25 3 12.53 2.55 12.96 2.06 13.58 1.58 14.38 1.06 8.54.27" stroke="#3a414a" stroke-width="3" stroke-linejoin="round" fill="none"/><path d="M1360.1 421.1l-1.4-.67" stroke="#3a414a" stroke-width="3" fill="none"/><path d="M1725.2 589.74l-13.1 7.32.38-15.26z" stroke="#3a414a" stroke-width="3" fill="#3a414a"/><path d="M1361 421.46l2.4 2.25 3.23 3.3 2.96 3.28 2.74 3.33 2.56 3.37 2.37 3.4 2.22 3.5 2.05 3.6 1.94 3.68 1.8 3.83 1.67 4 1.56 4.2 1.45 4.45 1.32 4.76 1.2 5.12 1.08 5.6.9 6.26.76 7.12.52 8.4.22 10.64-.37 16.1-2.54 55.84.2 10.04.48 7.85.7 6.56.83 5.72.97 5.1 1.08 4.6 1.2 4.25 1.27 3.95 1.37 3.7 1.47 3.52 1.58 3.34 1.67 3.2 1.77 3.1 1.9 3 2.03 2.9.35.48 2.24 2.92 2.52 3 2.86 3.14 3.23 3.25 3.67 3.38 4.2 3.56 4.77 3.74 5.52 3.94 6.37 4.17 7.43 4.4 8.7 4.7 10.24 5 12.15 5.3 14.5 5.62 17.35 5.9 20.76 6.1 24.7 6.14 28.87 5.9 32.5 5.27 34.32 4.1 32.96 2.54 25.24.9" stroke="#3a414a" stroke-width="3" stroke-linejoin="round" fill="none"/><path d="M1361.04 421.48l-1.12-1.05" stroke="#3a414a" stroke-width="3" fill="none"/><path d="M1725.2 751.88l-13.06 7.37.3-15.26z" stroke="#3a414a" stroke-width="3" fill="#3a414a"/><path d="M1362 422.87l2.3 3.26 3.04 4.72 2.93 4.98 2.8 5.28 2.7 5.64 2.6 6.04 2.48 6.52 2.35 7.08 2.23 7.75 2.08 8.6 1.9 9.6 1.7 10.92 1.42 12.66 1.06 15.12.52 18.88-.4 25.93-3.68 60.2-4.5 69.95-.35 23.25.45 16.4.9 12.82 1.17 10.54 1.38 8.92 1.53 7.74 1.66 6.82 1.75 6.1 1.83 5.48 1.9 5 .9 2.17 2.06 4.53 2.2 4.4 2.4 4.32 2.6 4.22 2.8 4.14 3 4.08 3.23 4.04 3.5 4 3.76 3.96 4.07 3.94 4.43 3.94 4.8 3.94 5.28 3.94 5.76 3.96 6.36 3.97 7.02 4 7.82 4.04 8.75 4.05 9.86 4.06 11.2 4.1 12.85 4.07 14.9 4.05 17.46 3.98 20.83 3.83 25.4 3.57 32.08 3.15 43.38 2.42 50.58.8" stroke="#3a414a" stroke-width="3" stroke-linejoin="round" fill="none"/><path d="M1362.02 422.9l-.9-1.26" stroke="#3a414a" stroke-width="3" fill="none"/><path d="M1725.2 918.86l-13.03 7.43.24-15.28z" stroke="#3a414a" stroke-width="3" fill="#3a414a"/><path d="M522.28-460.4h14.5a24 24 0 0 0 24-24v-240.9a24 24 0 0 1 24-24h789.37a24 24 0 0 1 24 24v235.72M522.32-460.4h-1.54" stroke="#3a414a" stroke-width="3" fill="none"/><path d="M1398.15-481.4l-7.64-12.92h15.3z" stroke="#3a414a" stroke-width="3" fill="#3a414a"/><path d="M1396.1-390.42h-139.6a24 24 0 0 1-24-24v-51.6a24 24 0 0 0-24-24h-130.02M1396.07-390.42h1.54" stroke="#3a414a" stroke-width="3" fill="none"/><path d="M1070.3-490l12.92-7.64v15.27z" stroke="#3a414a" stroke-width="3" fill="#3a414a"/><path d="M1396.1-390.42h-139.6a24 24 0 0 0-24 24v72.67a24 24 0 0 1-24 24h-130.02M1396.07-390.42h1.54" stroke="#3a414a" stroke-width="3" fill="none"/><path d="M1070.3-269.75l12.92-7.64v15.28z" stroke="#3a414a" stroke-width="3" fill="#3a414a"/><path d="M845.07-489.68H-229.35M845.03-489.68h1.54" stroke="#3a414a" stroke-width="3" fill="none"/><path d="M-237.5-489.68l12.9-7.64v15.27z" stroke="#3a414a" stroke-width="3" fill="#3a414a"/><path d="M-420.6-497.4h-140.73a24 24 0 0 0-24 24v332.12M-420.65-497.4h1.54" stroke="#3a414a" stroke-width="3" fill="none"/><path d="M-585.33-133.1l-7.64-12.93h15.27z" stroke="#3a414a" stroke-width="3" fill="#3a414a"/><path d="M-292.35-529.97a8 8 0 0 1 8-8h224a8 8 0 0 1 8 8v44a8 8 0 0 1-8 8h-224a8 8 0 0 1-8-8z" fill="none"/><g><use xlink:href="#an" transform="matrix(1,0,0,1,-292.35036943267676,-537.9655007763612) translate(87.05 33.6)"/></g><defs><path d="M212-179c-10-28-35-45-73-45-59 0-87 40-87 99 0 60 29 101 89 101 43 0 62-24 78-52l27 14C228-24 195 4 139 4 59 4 22-46 18-125c-6-104 99-153 187-111 19 9 31 26 39 46" id="aG"/><path d="M100-194c62-1 85 37 85 99 1 63-27 99-86 99S16-35 15-95c0-66 28-99 85-99zM99-20c44 1 53-31 53-75 0-43-8-75-51-75s-53 32-53 75 10 74 51 75" id="aH"/><path d="M117-194c89-4 53 116 60 194h-32v-121c0-31-8-49-39-48C34-167 62-67 57 0H25l-1-190h30c1 10-1 24 2 32 11-22 29-35 61-36" id="aI"/><path d="M85-194c31 0 48 13 60 33l-1-100h32l1 261h-30c-2-10 0-23-3-31C134-8 116 4 85 4 32 4 16-35 15-94c0-66 23-100 70-100zm9 24c-40 0-46 34-46 75 0 40 6 74 45 74 42 0 51-32 51-76 0-42-9-74-50-73" id="aJ"/><path d="M24-231v-30h32v30H24zM24 0v-190h32V0H24" id="aK"/><path d="M59-47c-2 24 18 29 38 22v24C64 9 27 4 27-40v-127H5v-23h24l9-43h21v43h35v23H59v120" id="aL"/><g id="a"><use transform="matrix(0.05,0,0,0.05,0,0)" xlink:href="#aG"/><use transform="matrix(0.05,0,0,0.05,12.950000000000001,0)" xlink:href="#aH"/><use transform="matrix(0.05,0,0,0.05,22.950000000000003,0)" xlink:href="#aI"/><use transform="matrix(0.05,0,0,0.05,32.95,0)" xlink:href="#aJ"/><use transform="matrix(0.05,0,0,0.05,42.95,0)" xlink:href="#aK"/><use transform="matrix(0.05,0,0,0.05,46.900000000000006,0)" xlink:href="#aL"/><use transform="matrix(0.05,0,0,0.05,51.900000000000006,0)" xlink:href="#aK"/><use transform="matrix(0.05,0,0,0.05,55.85,0)" xlink:href="#aH"/><use transform="matrix(0.05,0,0,0.05,65.85000000000001,0)" xlink:href="#aI"/></g><path fill="#3a414a" d="M232-93c-1 65-40 97-104 97C67 4 28-28 28-90v-158h33c8 89-33 224 67 224 102 0 64-133 71-224h33v155" id="aM"/><path fill="#3a414a" d="M135-143c-3-34-86-38-87 0 15 53 115 12 119 90S17 21 10-45l28-5c4 36 97 45 98 0-10-56-113-15-118-90-4-57 82-63 122-42 12 7 21 19 24 35" id="aN"/><path fill="#3a414a" d="M100-194c63 0 86 42 84 106H49c0 40 14 67 53 68 26 1 43-12 49-29l28 8c-11 28-37 45-77 45C44 4 14-33 15-96c1-61 26-98 85-98zm52 81c6-60-76-77-97-28-3 7-6 17-6 28h103" id="aO"/><path fill="#3a414a" d="M114-163C36-179 61-72 57 0H25l-1-190h30c1 12-1 29 2 39 6-27 23-49 58-41v29" id="aP"/><g id="b"><use transform="matrix(0.04938271604938272,0,0,0.04938271604938272,0,0)" xlink:href="#aM"/><use transform="matrix(0.04938271604938272,0,0,0.04938271604938272,12.790123456790125,0)" xlink:href="#aN"/><use transform="matrix(0.04938271604938272,0,0,0.04938271604938272,21.679012345679013,0)" xlink:href="#aO"/><use transform="matrix(0.04938271604938272,0,0,0.04938271604938272,31.555555555555557,0)" xlink:href="#aP"/></g><path fill="#3a414a" d="M185-189c-5-48-123-54-124 2 14 75 158 14 163 119 3 78-121 87-175 55-17-10-28-26-33-46l33-7c5 56 141 63 141-1 0-78-155-14-162-118-5-82 145-84 179-34 5 7 8 16 11 25" id="aQ"/><path fill="#3a414a" d="M59-47c-2 24 18 29 38 22v24C64 9 27 4 27-40v-127H5v-23h24l9-43h21v43h35v23H59v120" id="aR"/><path fill="#3a414a" d="M141-36C126-15 110 5 73 4 37 3 15-17 15-53c-1-64 63-63 125-63 3-35-9-54-41-54-24 1-41 7-42 31l-33-3c5-37 33-52 76-52 45 0 72 20 72 64v82c-1 20 7 32 28 27v20c-31 9-61-2-59-35zM48-53c0 20 12 33 32 33 41-3 63-29 60-74-43 2-92-5-92 41" id="aS"/><g id="c"><use transform="matrix(0.05,0,0,0.05,0,0)" xlink:href="#aQ"/><use transform="matrix(0.05,0,0,0.05,12,0)" xlink:href="#aR"/><use transform="matrix(0.05,0,0,0.05,17,0)" xlink:href="#aS"/><use transform="matrix(0.05,0,0,0.05,27,0)" xlink:href="#aP"/><use transform="matrix(0.05,0,0,0.05,32.95,0)" xlink:href="#aR"/></g><path fill="#3a414a" d="M106-169C34-169 62-67 57 0H25v-261h32l-1 103c12-21 28-36 61-36 89 0 53 116 60 194h-32v-121c2-32-8-49-39-48" id="aT"/><g id="d"><use transform="matrix(0.05,0,0,0.05,0,0)" xlink:href="#aR"/><use transform="matrix(0.05,0,0,0.05,5,0)" xlink:href="#aT"/><use transform="matrix(0.05,0,0,0.05,15,0)" xlink:href="#aO"/></g><path fill="#3a414a" d="M177-190C167-65 218 103 67 71c-23-6-38-20-44-43l32-5c15 47 100 32 89-28v-30C133-14 115 1 83 1 29 1 15-40 15-95c0-56 16-97 71-98 29-1 48 16 59 35 1-10 0-23 2-32h30zM94-22c36 0 50-32 50-73 0-42-14-75-50-75-39 0-46 34-46 75s6 73 46 73" id="aU"/><path fill="#3a414a" d="M210-169c-67 3-38 105-44 169h-31v-121c0-29-5-50-35-48C34-165 62-65 56 0H25l-1-190h30c1 10-1 24 2 32 10-44 99-50 107 0 11-21 27-35 58-36 85-2 47 119 55 194h-31v-121c0-29-5-49-35-48" id="aV"/><g id="e"><use transform="matrix(0.05,0,0,0.05,0,0)" xlink:href="#aU"/><use transform="matrix(0.05,0,0,0.05,10,0)" xlink:href="#aS"/><use transform="matrix(0.05,0,0,0.05,20,0)" xlink:href="#aV"/><use transform="matrix(0.05,0,0,0.05,34.95,0)" xlink:href="#aO"/></g><path fill="#3a414a" d="M63-220v92h138v28H63V0H30v-248h175v28H63" id="aW"/><path fill="#3a414a" d="M24-231v-30h32v30H24zM24 0v-190h32V0H24" id="aX"/><g id="f"><use transform="matrix(0.05,0,0,0.05,0,0)" xlink:href="#aW"/><use transform="matrix(0.05,0,0,0.05,10.950000000000001,0)" xlink:href="#aX"/><use transform="matrix(0.05,0,0,0.05,14.9,0)" xlink:href="#aP"/><use transform="matrix(0.05,0,0,0.05,20.85,0)" xlink:href="#aN"/><use transform="matrix(0.05,0,0,0.05,29.85,0)" xlink:href="#aR"/></g><path fill="#3a414a" d="M24 0v-261h32V0H24" id="aY"/><path fill="#3a414a" d="M100-194c62-1 85 37 85 99 1 63-27 99-86 99S16-35 15-95c0-66 28-99 85-99zM99-20c44 1 53-31 53-75 0-43-8-75-51-75s-53 32-53 75 10 74 51 75" id="aZ"/><path fill="#3a414a" d="M117-194c89-4 53 116 60 194h-32v-121c0-31-8-49-39-48C34-167 62-67 57 0H25l-1-190h30c1 10-1 24 2 32 11-22 29-35 61-36" id="ba"/><g id="g"><use transform="matrix(0.05,0,0,0.05,0,0)" xlink:href="#aY"/><use transform="matrix(0.05,0,0,0.05,3.95,0)" xlink:href="#aZ"/><use transform="matrix(0.05,0,0,0.05,13.949999999999998,0)" xlink:href="#aU"/><use transform="matrix(0.05,0,0,0.05,23.95,0)" xlink:href="#aX"/><use transform="matrix(0.05,0,0,0.05,27.899999999999995,0)" xlink:href="#ba"/></g><path fill="#3a414a" d="M101-234c-31-9-42 10-38 44h38v23H63V0H32v-167H5v-23h27c-7-52 17-82 69-68v24" id="bb"/><g id="h"><use transform="matrix(0.05,0,0,0.05,0,0)" xlink:href="#aZ"/><use transform="matrix(0.05,0,0,0.05,10,0)" xlink:href="#bb"/></g><path fill="#3a414a" d="M85-194c31 0 48 13 60 33l-1-100h32l1 261h-30c-2-10 0-23-3-31C134-8 116 4 85 4 32 4 16-35 15-94c0-66 23-100 70-100zm9 24c-40 0-46 34-46 75 0 40 6 74 45 74 42 0 51-32 51-76 0-42-9-74-50-73" id="bc"/><path fill="#3a414a" d="M179-190L93 31C79 59 56 82 12 73V49c39 6 53-20 64-50L1-190h34L92-34l54-156h33" id="bd"/><g id="i"><use transform="matrix(0.05,0,0,0.05,0,0)" xlink:href="#bc"/><use transform="matrix(0.05,0,0,0.05,10,0)" xlink:href="#aS"/><use transform="matrix(0.05,0,0,0.05,20,0)" xlink:href="#bd"/></g><path fill="#3a414a" d="M233-177c-1 41-23 64-60 70L243 0h-38l-65-103H63V0H30v-248c88 3 205-21 203 71zM63-129c60-2 137 13 137-47 0-61-80-42-137-45v92" id="be"/><path fill="#3a414a" d="M96-169c-40 0-48 33-48 73s9 75 48 75c24 0 41-14 43-38l32 2c-6 37-31 61-74 61-59 0-76-41-82-99-10-93 101-131 147-64 4 7 5 14 7 22l-32 3c-4-21-16-35-41-35" id="bf"/><path fill="#3a414a" d="M108 0H70L1-190h34L89-25l56-165h34" id="bg"/><g id="j"><use transform="matrix(0.05,0,0,0.05,0,0)" xlink:href="#be"/><use transform="matrix(0.05,0,0,0.05,12.950000000000001,0)" xlink:href="#aO"/><use transform="matrix(0.05,0,0,0.05,22.950000000000003,0)" xlink:href="#bf"/><use transform="matrix(0.05,0,0,0.05,31.950000000000003,0)" xlink:href="#aO"/><use transform="matrix(0.05,0,0,0.05,41.95,0)" xlink:href="#aX"/><use transform="matrix(0.05,0,0,0.05,45.900000000000006,0)" xlink:href="#bg"/><use transform="matrix(0.05,0,0,0.05,54.900000000000006,0)" xlink:href="#aO"/></g><g id="k"><use transform="matrix(0.05,0,0,0.05,0,0)" xlink:href="#bc"/><use transform="matrix(0.05,0,0,0.05,10,0)" xlink:href="#aS"/><use transform="matrix(0.05,0,0,0.05,20,0)" xlink:href="#aX"/><use transform="matrix(0.05,0,0,0.05,23.95,0)" xlink:href="#aY"/><use transform="matrix(0.05,0,0,0.05,27.899999999999995,0)" xlink:href="#bd"/></g><path fill="#3a414a" d="M115-194c53 0 69 39 70 98 0 66-23 100-70 100C84 3 66-7 56-30L54 0H23l1-261h32v101c10-23 28-34 59-34zm-8 174c40 0 45-34 45-75 0-40-5-75-45-74-42 0-51 32-51 76 0 43 10 73 51 73" id="bh"/><path fill="#3a414a" d="M84 4C-5 8 30-112 23-190h32v120c0 31 7 50 39 49 72-2 45-101 50-169h31l1 190h-30c-1-10 1-25-2-33-11 22-28 36-60 37" id="bi"/><g id="l"><use transform="matrix(0.05,0,0,0.05,0,0)" xlink:href="#bh"/><use transform="matrix(0.05,0,0,0.05,10,0)" xlink:href="#aZ"/><use transform="matrix(0.05,0,0,0.05,20,0)" xlink:href="#ba"/><use transform="matrix(0.05,0,0,0.05,30,0)" xlink:href="#bi"/><use transform="matrix(0.05,0,0,0.05,40,0)" xlink:href="#aN"/></g><path fill="#3a414a" d="M137 0h-34L2-248h35l83 218 83-218h36" id="bj"/><path fill="#3a414a" d="M206 0h-36l-40-164L89 0H53L-1-190h32L70-26l43-164h34l41 164 42-164h31" id="bk"/><g id="m"><use transform="matrix(0.05,0,0,0.05,0,0)" xlink:href="#bj"/><use transform="matrix(0.05,0,0,0.05,11.65,0)" xlink:href="#aX"/><use transform="matrix(0.05,0,0,0.05,15.600000000000001,0)" xlink:href="#aO"/><use transform="matrix(0.05,0,0,0.05,25.6,0)" xlink:href="#bk"/></g><g id="n"><use transform="matrix(0.05,0,0,0.05,0,0)" xlink:href="#aP"/><use transform="matrix(0.05,0,0,0.05,5.95,0)" xlink:href="#bi"/><use transform="matrix(0.05,0,0,0.05,15.949999999999998,0)" xlink:href="#aY"/><use transform="matrix(0.05,0,0,0.05,19.9,0)" xlink:href="#aO"/><use transform="matrix(0.05,0,0,0.05,29.899999999999995,0)" xlink:href="#aN"/></g><path fill="#3a414a" d="M212-179c-10-28-35-45-73-45-59 0-87 40-87 99 0 60 29 101 89 101 43 0 62-24 78-52l27 14C228-24 195 4 139 4 59 4 22-46 18-125c-6-104 99-153 187-111 19 9 31 26 39 46" id="bl"/><g id="o"><use transform="matrix(0.05,0,0,0.05,0,0)" xlink:href="#bl"/><use transform="matrix(0.05,0,0,0.05,12.950000000000001,0)" xlink:href="#aT"/><use transform="matrix(0.05,0,0,0.05,22.950000000000003,0)" xlink:href="#aZ"/><use transform="matrix(0.05,0,0,0.05,32.95,0)" xlink:href="#aZ"/><use transform="matrix(0.05,0,0,0.05,42.95,0)" xlink:href="#aN"/><use transform="matrix(0.05,0,0,0.05,51.95,0)" xlink:href="#aO"/></g><use transform="matrix(0.05,0,0,0.05,0,0)" xlink:href="#aS" id="p"/><g id="q"><use transform="matrix(0.05,0,0,0.05,0,0)" xlink:href="#aR"/><use transform="matrix(0.05,0,0,0.05,5,0)" xlink:href="#aS"/><use transform="matrix(0.05,0,0,0.05,15,0)" xlink:href="#bh"/><use transform="matrix(0.05,0,0,0.05,25,0)" xlink:href="#aY"/><use transform="matrix(0.05,0,0,0.05,28.950000000000003,0)" xlink:href="#aO"/></g><path fill="#3a414a" d="M115-194c55 1 70 41 70 98S169 2 115 4C84 4 66-9 55-30l1 105H24l-1-265h31l2 30c10-21 28-34 59-34zm-8 174c40 0 45-34 45-75s-6-73-45-74c-42 0-51 32-51 76 0 43 10 73 51 73" id="bm"/><g id="r"><use transform="matrix(0.05,0,0,0.05,0,0)" xlink:href="#aQ"/><use transform="matrix(0.05,0,0,0.05,12,0)" xlink:href="#bm"/><use transform="matrix(0.05,0,0,0.05,22,0)" xlink:href="#aO"/><use transform="matrix(0.05,0,0,0.05,32,0)" xlink:href="#bf"/><use transform="matrix(0.05,0,0,0.05,41,0)" xlink:href="#aR"/><use transform="matrix(0.05,0,0,0.05,46,0)" xlink:href="#aS"/><use transform="matrix(0.05,0,0,0.05,56,0)" xlink:href="#aR"/><use transform="matrix(0.05,0,0,0.05,61,0)" xlink:href="#aO"/></g><path fill="#3a414a" d="M153-248C145-148 188 4 80 4 36 3 13-21 6-62l32-5c4 25 16 42 43 43 27 0 39-20 39-49v-147H72v-28h81" id="bn"/><g id="s"><use transform="matrix(0.05,0,0,0.05,0,0)" xlink:href="#bn"/><use transform="matrix(0.05,0,0,0.05,9,0)" xlink:href="#aZ"/><use transform="matrix(0.05,0,0,0.05,19,0)" xlink:href="#aX"/><use transform="matrix(0.05,0,0,0.05,22.95,0)" xlink:href="#ba"/></g><path fill="#3a414a" d="M143 0L79-87 56-68V0H24v-261h32v163l83-92h37l-77 82L181 0h-38" id="bo"/><g id="t"><use transform="matrix(0.05,0,0,0.05,0,0)" xlink:href="#bl"/><use transform="matrix(0.05,0,0,0.05,12.950000000000001,0)" xlink:href="#aT"/><use transform="matrix(0.05,0,0,0.05,22.950000000000003,0)" xlink:href="#aO"/><use transform="matrix(0.05,0,0,0.05,32.95,0)" xlink:href="#bf"/><use transform="matrix(0.05,0,0,0.05,41.95,0)" xlink:href="#bo"/></g><g id="u"><use transform="matrix(0.05,0,0,0.05,0,0)" xlink:href="#aW"/><use transform="matrix(0.05,0,0,0.05,10.950000000000001,0)" xlink:href="#aZ"/><use transform="matrix(0.05,0,0,0.05,20.950000000000003,0)" xlink:href="#aY"/><use transform="matrix(0.05,0,0,0.05,24.900000000000002,0)" xlink:href="#bc"/></g><g id="v"><use transform="matrix(0.05,0,0,0.05,0,0)" xlink:href="#be"/><use transform="matrix(0.05,0,0,0.05,12.950000000000001,0)" xlink:href="#aS"/><use transform="matrix(0.05,0,0,0.05,22.950000000000003,0)" xlink:href="#aX"/><use transform="matrix(0.05,0,0,0.05,26.900000000000002,0)" xlink:href="#aN"/><use transform="matrix(0.05,0,0,0.05,35.900000000000006,0)" xlink:href="#aO"/></g><g id="w"><use transform="matrix(0.05,0,0,0.05,0,0)" xlink:href="#bl"/><use transform="matrix(0.05,0,0,0.05,12.950000000000001,0)" xlink:href="#aS"/><use transform="matrix(0.05,0,0,0.05,22.950000000000003,0)" xlink:href="#aY"/><use transform="matrix(0.05,0,0,0.05,26.900000000000002,0)" xlink:href="#aY"/></g><path fill="#3a414a" d="M160-131c35 5 61 23 61 61C221 17 115-2 30 0v-248c76 3 177-17 177 60 0 33-19 50-47 57zm-97-11c50-1 110 9 110-42 0-47-63-36-110-37v79zm0 115c55-2 124 14 124-45 0-56-70-42-124-44v89" id="bp"/><g id="x"><use transform="matrix(0.05,0,0,0.05,0,0)" xlink:href="#bp"/><use transform="matrix(0.05,0,0,0.05,12,0)" xlink:href="#aO"/><use transform="matrix(0.05,0,0,0.05,22,0)" xlink:href="#aR"/></g><g id="y"><use transform="matrix(0.05,0,0,0.05,0,0)" xlink:href="#aM"/><use transform="matrix(0.05,0,0,0.05,12.950000000000001,0)" xlink:href="#aN"/><use transform="matrix(0.05,0,0,0.05,21.950000000000003,0)" xlink:href="#aO"/><use transform="matrix(0.05,0,0,0.05,31.950000000000003,0)" xlink:href="#aP"/></g><g id="z"><use transform="matrix(0.05,0,0,0.05,0,0)" xlink:href="#aT"/><use transform="matrix(0.05,0,0,0.05,10,0)" xlink:href="#aS"/><use transform="matrix(0.05,0,0,0.05,20,0)" xlink:href="#aN"/></g><g id="A"><use transform="matrix(0.05,0,0,0.05,0,0)" xlink:href="#aO"/><use transform="matrix(0.05,0,0,0.05,10,0)" xlink:href="#ba"/><use transform="matrix(0.05,0,0,0.05,20,0)" xlink:href="#aZ"/><use transform="matrix(0.05,0,0,0.05,30,0)" xlink:href="#bi"/><use transform="matrix(0.05,0,0,0.05,40,0)" xlink:href="#aU"/><use transform="matrix(0.05,0,0,0.05,50,0)" xlink:href="#aT"/></g><g id="B"><use transform="matrix(0.05,0,0,0.05,0,0)" xlink:href="#bf"/><use transform="matrix(0.05,0,0,0.05,9,0)" xlink:href="#aT"/><use transform="matrix(0.05,0,0,0.05,19,0)" xlink:href="#aX"/><use transform="matrix(0.05,0,0,0.05,22.95,0)" xlink:href="#bm"/><use transform="matrix(0.05,0,0,0.05,32.95,0)" xlink:href="#aN"/></g><g id="C"><use transform="matrix(0.05,0,0,0.05,0,0)" xlink:href="#aS"/><use transform="matrix(0.05,0,0,0.05,10,0)" xlink:href="#ba"/><use transform="matrix(0.05,0,0,0.05,20,0)" xlink:href="#bc"/></g><g id="D"><use transform="matrix(0.05,0,0,0.05,0,0)" xlink:href="#aR"/><use transform="matrix(0.05,0,0,0.05,5,0)" xlink:href="#aT"/><use transform="matrix(0.05,0,0,0.05,15,0)" xlink:href="#aO"/><use transform="matrix(0.05,0,0,0.05,25,0)" xlink:href="#aP"/><use transform="matrix(0.05,0,0,0.05,30.950000000000003,0)" xlink:href="#aO"/></g><g id="E"><use transform="matrix(0.05,0,0,0.05,0,0)" xlink:href="#aS"/><use transform="matrix(0.05,0,0,0.05,10,0)" xlink:href="#aP"/><use transform="matrix(0.05,0,0,0.05,15.949999999999998,0)" xlink:href="#aO"/></g><g id="F"><use transform="matrix(0.05,0,0,0.05,0,0)" xlink:href="#aS"/><use transform="matrix(0.05,0,0,0.05,10,0)" xlink:href="#bg"/><use transform="matrix(0.05,0,0,0.05,19,0)" xlink:href="#aS"/><use transform="matrix(0.05,0,0,0.05,29,0)" xlink:href="#aX"/><use transform="matrix(0.05,0,0,0.05,32.95,0)" xlink:href="#aY"/><use transform="matrix(0.05,0,0,0.05,36.900000000000006,0)" xlink:href="#aS"/><use transform="matrix(0.05,0,0,0.05,46.900000000000006,0)" xlink:href="#bh"/><use transform="matrix(0.05,0,0,0.05,56.900000000000006,0)" xlink:href="#aY"/><use transform="matrix(0.05,0,0,0.05,60.85,0)" xlink:href="#aO"/></g><g id="G"><use transform="matrix(0.05,0,0,0.05,0,0)" xlink:href="#aN"/><use transform="matrix(0.05,0,0,0.05,9,0)" xlink:href="#aO"/><use transform="matrix(0.05,0,0,0.05,19,0)" xlink:href="#aS"/><use transform="matrix(0.05,0,0,0.05,29,0)" xlink:href="#aR"/><use transform="matrix(0.05,0,0,0.05,34,0)" xlink:href="#aN"/></g><path fill="#3a414a" d="M190 0L58-211 59 0H30v-248h39L202-35l-2-213h31V0h-41" id="bq"/><g id="H"><use transform="matrix(0.05,0,0,0.05,0,0)" xlink:href="#bq"/><use transform="matrix(0.05,0,0,0.05,12.950000000000001,0)" xlink:href="#aZ"/></g><g id="I"><use transform="matrix(0.05,0,0,0.05,0,0)" xlink:href="#bh"/><use transform="matrix(0.05,0,0,0.05,10,0)" xlink:href="#aO"/><use transform="matrix(0.05,0,0,0.05,20,0)" xlink:href="#aR"/></g><g id="J"><use transform="matrix(0.05,0,0,0.05,0,0)" xlink:href="#bh"/><use transform="matrix(0.05,0,0,0.05,10,0)" xlink:href="#aO"/><use transform="matrix(0.05,0,0,0.05,20,0)" xlink:href="#aO"/><use transform="matrix(0.05,0,0,0.05,30,0)" xlink:href="#ba"/></g><g id="K"><use transform="matrix(0.05,0,0,0.05,0,0)" xlink:href="#bm"/><use transform="matrix(0.05,0,0,0.05,10,0)" xlink:href="#aY"/><use transform="matrix(0.05,0,0,0.05,13.949999999999998,0)" xlink:href="#aS"/><use transform="matrix(0.05,0,0,0.05,23.95,0)" xlink:href="#bf"/><use transform="matrix(0.05,0,0,0.05,32.95,0)" xlink:href="#aO"/><use transform="matrix(0.05,0,0,0.05,42.95,0)" xlink:href="#bc"/></g><g id="L"><use transform="matrix(0.05,0,0,0.05,0,0)" xlink:href="#aR"/><use transform="matrix(0.05,0,0,0.05,5,0)" xlink:href="#bi"/><use transform="matrix(0.05,0,0,0.05,15,0)" xlink:href="#aP"/><use transform="matrix(0.05,0,0,0.05,20.95,0)" xlink:href="#ba"/></g><g id="M"><use transform="matrix(0.05,0,0,0.05,0,0)" xlink:href="#bf"/><use transform="matrix(0.05,0,0,0.05,9,0)" xlink:href="#aT"/><use transform="matrix(0.05,0,0,0.05,19,0)" xlink:href="#aS"/><use transform="matrix(0.05,0,0,0.05,29,0)" xlink:href="#aR"/></g><g id="N"><use transform="matrix(0.05,0,0,0.05,0,0)" xlink:href="#aQ"/><use transform="matrix(0.05,0,0,0.05,12,0)" xlink:href="#aO"/><use transform="matrix(0.05,0,0,0.05,22,0)" xlink:href="#ba"/><use transform="matrix(0.05,0,0,0.05,32,0)" xlink:href="#bc"/></g><g id="O"><use transform="matrix(0.05,0,0,0.05,0,0)" xlink:href="#aV"/><use transform="matrix(0.05,0,0,0.05,14.950000000000001,0)" xlink:href="#aO"/><use transform="matrix(0.05,0,0,0.05,24.950000000000003,0)" xlink:href="#aN"/><use transform="matrix(0.05,0,0,0.05,33.95,0)" xlink:href="#aN"/><use transform="matrix(0.05,0,0,0.05,42.95,0)" xlink:href="#aS"/><use transform="matrix(0.05,0,0,0.05,52.95,0)" xlink:href="#aU"/><use transform="matrix(0.05,0,0,0.05,62.95,0)" xlink:href="#aO"/></g><g id="P"><use transform="matrix(0.05,0,0,0.05,0,0)" xlink:href="#aS"/><use transform="matrix(0.05,0,0,0.05,10,0)" xlink:href="#bf"/><use transform="matrix(0.05,0,0,0.05,19,0)" xlink:href="#aR"/><use transform="matrix(0.05,0,0,0.05,24,0)" xlink:href="#aX"/><use transform="matrix(0.05,0,0,0.05,27.950000000000003,0)" xlink:href="#bg"/><use transform="matrix(0.05,0,0,0.05,36.95,0)" xlink:href="#aO"/></g><g id="Q"><use transform="matrix(0.05,0,0,0.05,0,0)" xlink:href="#bf"/><use transform="matrix(0.05,0,0,0.05,9,0)" xlink:href="#aT"/><use transform="matrix(0.05,0,0,0.05,19,0)" xlink:href="#aS"/><use transform="matrix(0.05,0,0,0.05,29,0)" xlink:href="#aY"/><use transform="matrix(0.05,0,0,0.05,32.95,0)" xlink:href="#aY"/><use transform="matrix(0.05,0,0,0.05,36.900000000000006,0)" xlink:href="#aO"/><use transform="matrix(0.05,0,0,0.05,46.900000000000006,0)" xlink:href="#ba"/><use transform="matrix(0.05,0,0,0.05,56.900000000000006,0)" xlink:href="#aU"/><use transform="matrix(0.05,0,0,0.05,66.9,0)" xlink:href="#aO"/><use transform="matrix(0.05,0,0,0.05,76.9,0)" xlink:href="#aN"/></g><g id="R"><use transform="matrix(0.05,0,0,0.05,0,0)" xlink:href="#bj"/><use transform="matrix(0.05,0,0,0.05,11.65,0)" xlink:href="#aX"/><use transform="matrix(0.05,0,0,0.05,15.600000000000001,0)" xlink:href="#aN"/><use transform="matrix(0.05,0,0,0.05,24.6,0)" xlink:href="#aX"/><use transform="matrix(0.05,0,0,0.05,28.55,0)" xlink:href="#aR"/></g><g id="S"><use transform="matrix(0.05,0,0,0.05,0,0)" xlink:href="#aN"/><use transform="matrix(0.05,0,0,0.05,9,0)" xlink:href="#aT"/><use transform="matrix(0.05,0,0,0.05,19,0)" xlink:href="#aZ"/><use transform="matrix(0.05,0,0,0.05,29,0)" xlink:href="#bm"/></g><g id="T"><use transform="matrix(0.05,0,0,0.05,0,0)" xlink:href="#bp"/><use transform="matrix(0.05,0,0,0.05,12,0)" xlink:href="#bi"/><use transform="matrix(0.05,0,0,0.05,22,0)" xlink:href="#bd"/></g><g id="U"><use transform="matrix(0.05,0,0,0.05,0,0)" xlink:href="#aS"/><use transform="matrix(0.05,0,0,0.05,10,0)" xlink:href="#ba"/></g><g id="V"><use transform="matrix(0.05,0,0,0.05,0,0)" xlink:href="#aX"/><use transform="matrix(0.05,0,0,0.05,3.95,0)" xlink:href="#aR"/><use transform="matrix(0.05,0,0,0.05,8.95,0)" xlink:href="#aO"/><use transform="matrix(0.05,0,0,0.05,18.95,0)" xlink:href="#aV"/></g><g id="W"><use transform="matrix(0.05,0,0,0.05,0,0)" xlink:href="#aS"/><use transform="matrix(0.05,0,0,0.05,10,0)" xlink:href="#ba"/><use transform="matrix(0.05,0,0,0.05,20,0)" xlink:href="#bc"/></g><g id="X"><use transform="matrix(0.05,0,0,0.05,0,0)" xlink:href="#aX"/><use transform="matrix(0.05,0,0,0.05,3.95,0)" xlink:href="#aR"/><use transform="matrix(0.05,0,0,0.05,8.95,0)" xlink:href="#aO"/><use transform="matrix(0.05,0,0,0.05,18.95,0)" xlink:href="#aV"/></g><g id="Y"><use transform="matrix(0.05,0,0,0.05,0,0)" xlink:href="#ba"/><use transform="matrix(0.05,0,0,0.05,10,0)" xlink:href="#aZ"/><use transform="matrix(0.05,0,0,0.05,20,0)" xlink:href="#aR"/></g><g id="Z"><use transform="matrix(0.05,0,0,0.05,0,0)" xlink:href="#bm"/><use transform="matrix(0.05,0,0,0.05,10,0)" xlink:href="#aP"/><use transform="matrix(0.05,0,0,0.05,15.949999999999998,0)" xlink:href="#aO"/><use transform="matrix(0.05,0,0,0.05,25.950000000000003,0)" xlink:href="#bg"/><use transform="matrix(0.05,0,0,0.05,34.95,0)" xlink:href="#aX"/><use transform="matrix(0.05,0,0,0.05,38.900000000000006,0)" xlink:href="#aZ"/><use transform="matrix(0.05,0,0,0.05,48.900000000000006,0)" xlink:href="#bi"/><use transform="matrix(0.05,0,0,0.05,58.900000000000006,0)" xlink:href="#aN"/><use transform="matrix(0.05,0,0,0.05,67.9,0)" xlink:href="#aY"/><use transform="matrix(0.05,0,0,0.05,71.85000000000001,0)" xlink:href="#bd"/></g><g id="aa"><use transform="matrix(0.05,0,0,0.05,0,0)" xlink:href="#bm"/><use transform="matrix(0.05,0,0,0.05,10,0)" xlink:href="#bi"/><use transform="matrix(0.05,0,0,0.05,20,0)" xlink:href="#aP"/><use transform="matrix(0.05,0,0,0.05,25.950000000000003,0)" xlink:href="#bf"/><use transform="matrix(0.05,0,0,0.05,34.95,0)" xlink:href="#aT"/><use transform="matrix(0.05,0,0,0.05,44.95,0)" xlink:href="#aS"/><use transform="matrix(0.05,0,0,0.05,54.95,0)" xlink:href="#aN"/><use transform="matrix(0.05,0,0,0.05,63.95,0)" xlink:href="#aO"/><use transform="matrix(0.05,0,0,0.05,73.95,0)" xlink:href="#bc"/></g><path fill="#3a414a" d="M143 4C61 4 22-44 18-125c-5-107 100-154 193-111 17 8 29 25 37 43l-32 9c-13-25-37-40-76-40-61 0-88 39-88 99 0 61 29 100 91 101 35 0 62-11 79-27v-45h-74v-28h105v86C228-13 192 4 143 4" id="br"/><g id="ab"><use transform="matrix(0.05,0,0,0.05,0,0)" xlink:href="#br"/><use transform="matrix(0.05,0,0,0.05,14,0)" xlink:href="#aZ"/></g><g id="ac"><use transform="matrix(0.05,0,0,0.05,0,0)" xlink:href="#aR"/><use transform="matrix(0.05,0,0,0.05,5,0)" xlink:href="#aZ"/></g><g id="ad"><use transform="matrix(0.05,0,0,0.05,0,0)" xlink:href="#bm"/><use transform="matrix(0.05,0,0,0.05,10,0)" xlink:href="#aP"/><use transform="matrix(0.05,0,0,0.05,15.949999999999998,0)" xlink:href="#aZ"/><use transform="matrix(0.05,0,0,0.05,25.950000000000003,0)" xlink:href="#bb"/><use transform="matrix(0.05,0,0,0.05,30.950000000000003,0)" xlink:href="#aX"/><use transform="matrix(0.05,0,0,0.05,34.9,0)" xlink:href="#aY"/><use transform="matrix(0.05,0,0,0.05,38.85,0)" xlink:href="#aO"/></g><g id="ae"><use transform="matrix(0.05,0,0,0.05,0,0)" xlink:href="#bm"/><use transform="matrix(0.05,0,0,0.05,10,0)" xlink:href="#aS"/><use transform="matrix(0.05,0,0,0.05,20,0)" xlink:href="#aU"/><use transform="matrix(0.05,0,0,0.05,30,0)" xlink:href="#aO"/></g><g id="af"><use transform="matrix(0.05,0,0,0.05,0,0)" xlink:href="#aX"/><use transform="matrix(0.05,0,0,0.05,3.95,0)" xlink:href="#ba"/><use transform="matrix(0.05,0,0,0.05,13.949999999999998,0)" xlink:href="#bb"/><use transform="matrix(0.05,0,0,0.05,18.95,0)" xlink:href="#aZ"/><use transform="matrix(0.05,0,0,0.05,28.950000000000003,0)" xlink:href="#aP"/><use transform="matrix(0.05,0,0,0.05,34.9,0)" xlink:href="#aV"/><use transform="matrix(0.05,0,0,0.05,49.85,0)" xlink:href="#aS"/><use transform="matrix(0.05,0,0,0.05,59.85,0)" xlink:href="#aR"/><use transform="matrix(0.05,0,0,0.05,64.85,0)" xlink:href="#aX"/><use transform="matrix(0.05,0,0,0.05,68.8,0)" xlink:href="#aZ"/><use transform="matrix(0.05,0,0,0.05,78.8,0)" xlink:href="#ba"/></g><g id="ag"><use transform="matrix(0.05,0,0,0.05,0,0)" xlink:href="#aS"/><use transform="matrix(0.05,0,0,0.05,10,0)" xlink:href="#bh"/><use transform="matrix(0.05,0,0,0.05,20,0)" xlink:href="#aZ"/><use transform="matrix(0.05,0,0,0.05,30,0)" xlink:href="#bi"/><use transform="matrix(0.05,0,0,0.05,40,0)" xlink:href="#aR"/></g><g id="ah"><use transform="matrix(0.05,0,0,0.05,0,0)" xlink:href="#bm"/><use transform="matrix(0.05,0,0,0.05,10,0)" xlink:href="#aP"/><use transform="matrix(0.05,0,0,0.05,15.949999999999998,0)" xlink:href="#aZ"/><use transform="matrix(0.05,0,0,0.05,25.950000000000003,0)" xlink:href="#bb"/><use transform="matrix(0.05,0,0,0.05,30.950000000000003,0)" xlink:href="#aX"/><use transform="matrix(0.05,0,0,0.05,34.9,0)" xlink:href="#aY"/><use transform="matrix(0.05,0,0,0.05,38.85,0)" xlink:href="#aO"/></g><path fill="#3a414a" d="M30-248c87 1 191-15 191 75 0 78-77 80-158 76V0H30v-248zm33 125c57 0 124 11 124-50 0-59-68-47-124-48v98" id="bs"/><path fill="#3a414a" d="M9 0v-24l116-142H16v-24h144v24L44-24h123V0H9" id="bt"/><g id="ai"><use transform="matrix(0.05,0,0,0.05,0,0)" xlink:href="#bs"/><use transform="matrix(0.05,0,0,0.05,12,0)" xlink:href="#aO"/><use transform="matrix(0.05,0,0,0.05,22,0)" xlink:href="#aP"/><use transform="matrix(0.05,0,0,0.05,27.950000000000003,0)" xlink:href="#aN"/><use transform="matrix(0.05,0,0,0.05,36.95,0)" xlink:href="#aZ"/><use transform="matrix(0.05,0,0,0.05,46.95,0)" xlink:href="#ba"/><use transform="matrix(0.05,0,0,0.05,56.95,0)" xlink:href="#aS"/><use transform="matrix(0.05,0,0,0.05,66.95,0)" xlink:href="#aY"/><use transform="matrix(0.05,0,0,0.05,70.9,0)" xlink:href="#aX"/><use transform="matrix(0.05,0,0,0.05,74.85000000000001,0)" xlink:href="#bt"/><use transform="matrix(0.05,0,0,0.05,83.85000000000001,0)" xlink:href="#aO"/></g><g id="aj"><use transform="matrix(0.05,0,0,0.05,0,0)" xlink:href="#bk"/><use transform="matrix(0.05,0,0,0.05,12.950000000000001,0)" xlink:href="#aX"/><use transform="matrix(0.05,0,0,0.05,16.900000000000002,0)" xlink:href="#aR"/><use transform="matrix(0.05,0,0,0.05,21.900000000000002,0)" xlink:href="#aT"/></g><g id="ak"><use transform="matrix(0.05,0,0,0.05,0,0)" xlink:href="#bm"/><use transform="matrix(0.05,0,0,0.05,10,0)" xlink:href="#bi"/><use transform="matrix(0.05,0,0,0.05,20,0)" xlink:href="#aP"/><use transform="matrix(0.05,0,0,0.05,25.950000000000003,0)" xlink:href="#bf"/><use transform="matrix(0.05,0,0,0.05,34.95,0)" xlink:href="#aT"/><use transform="matrix(0.05,0,0,0.05,44.95,0)" xlink:href="#aS"/><use transform="matrix(0.05,0,0,0.05,54.95,0)" xlink:href="#aN"/><use transform="matrix(0.05,0,0,0.05,63.95,0)" xlink:href="#aO"/><use transform="matrix(0.05,0,0,0.05,73.95,0)" xlink:href="#bc"/></g><g id="al"><use transform="matrix(0.05,0,0,0.05,0,0)" xlink:href="#aX"/><use transform="matrix(0.05,0,0,0.05,3.95,0)" xlink:href="#bf"/><use transform="matrix(0.05,0,0,0.05,12.949999999999998,0)" xlink:href="#aZ"/><use transform="matrix(0.05,0,0,0.05,22.95,0)" xlink:href="#ba"/><use transform="matrix(0.05,0,0,0.05,32.95,0)" xlink:href="#aN"/></g><g id="am"><use transform="matrix(0.05,0,0,0.05,0,0)" xlink:href="#aY"/><use transform="matrix(0.05,0,0,0.05,3.95,0)" xlink:href="#aO"/><use transform="matrix(0.05,0,0,0.05,13.949999999999998,0)" xlink:href="#aS"/><use transform="matrix(0.05,0,0,0.05,23.95,0)" xlink:href="#bc"/><use transform="matrix(0.05,0,0,0.05,33.95,0)" xlink:href="#aO"/><use transform="matrix(0.05,0,0,0.05,43.95,0)" xlink:href="#aP"/><use transform="matrix(0.05,0,0,0.05,49.900000000000006,0)" xlink:href="#bh"/><use transform="matrix(0.05,0,0,0.05,59.900000000000006,0)" xlink:href="#aZ"/><use transform="matrix(0.05,0,0,0.05,69.9,0)" xlink:href="#aS"/><use transform="matrix(0.05,0,0,0.05,79.9,0)" xlink:href="#aP"/><use transform="matrix(0.05,0,0,0.05,85.85000000000001,0)" xlink:href="#bc"/></g><g id="an"><use transform="matrix(0.05,0,0,0.05,0,0)" xlink:href="#aX"/><use transform="matrix(0.05,0,0,0.05,3.95,0)" xlink:href="#ba"/><use transform="matrix(0.05,0,0,0.05,13.949999999999998,0)" xlink:href="#bf"/><use transform="matrix(0.05,0,0,0.05,22.95,0)" xlink:href="#aY"/><use transform="matrix(0.05,0,0,0.05,26.899999999999995,0)" xlink:href="#bi"/><use transform="matrix(0.05,0,0,0.05,36.9,0)" xlink:href="#bc"/><use transform="matrix(0.05,0,0,0.05,46.9,0)" xlink:href="#aO"/><use transform="matrix(0.05,0,0,0.05,56.900000000000006,0)" xlink:href="#aN"/></g><path d="M18-100v-36l175-74v27L42-118l151 64v27" id="bu"/><path d="M100-194c63 0 86 42 84 106H49c0 40 14 67 53 68 26 1 43-12 49-29l28 8c-11 28-37 45-77 45C44 4 14-33 15-96c1-61 26-98 85-98zm52 81c6-60-76-77-97-28-3 7-6 17-6 28h103" id="bv"/><path d="M141 0L90-78 38 0H4l68-98-65-92h35l48 74 47-74h35l-64 92 68 98h-35" id="bw"/><path d="M135-143c-3-34-86-38-87 0 15 53 115 12 119 90S17 21 10-45l28-5c4 36 97 45 98 0-10-56-113-15-118-90-4-57 82-63 122-42 12 7 21 19 24 35" id="bx"/><path d="M18-27v-27l151-64-151-65v-27l175 74v36" id="by"/><g id="ao"><use transform="matrix(0.04938271604938272,0,0,0.04938271604938272,0,0)" xlink:href="#bu"/><use transform="matrix(0.04938271604938272,0,0,0.04938271604938272,10.370370370370372,0)" xlink:href="#bu"/><use transform="matrix(0.04938271604938272,0,0,0.04938271604938272,20.740740740740744,0)" xlink:href="#bv"/><use transform="matrix(0.04938271604938272,0,0,0.04938271604938272,30.617283950617285,0)" xlink:href="#bw"/><use transform="matrix(0.04938271604938272,0,0,0.04938271604938272,39.50617283950618,0)" xlink:href="#aL"/><use transform="matrix(0.04938271604938272,0,0,0.04938271604938272,44.44444444444445,0)" xlink:href="#bv"/><use transform="matrix(0.04938271604938272,0,0,0.04938271604938272,54.320987654320994,0)" xlink:href="#aI"/><use transform="matrix(0.04938271604938272,0,0,0.04938271604938272,64.19753086419755,0)" xlink:href="#aJ"/><use transform="matrix(0.04938271604938272,0,0,0.04938271604938272,74.07407407407409,0)" xlink:href="#bx"/><use transform="matrix(0.04938271604938272,0,0,0.04938271604938272,82.96296296296298,0)" xlink:href="#by"/><use transform="matrix(0.04938271604938272,0,0,0.04938271604938272,93.33333333333334,0)" xlink:href="#by"/></g><g id="ap"><use transform="matrix(0.04938271604938272,0,0,0.04938271604938272,0,0)" xlink:href="#bv"/><use transform="matrix(0.04938271604938272,0,0,0.04938271604938272,9.876543209876544,0)" xlink:href="#bw"/><use transform="matrix(0.04938271604938272,0,0,0.04938271604938272,18.765432098765434,0)" xlink:href="#aL"/><use transform="matrix(0.04938271604938272,0,0,0.04938271604938272,23.703703703703706,0)" xlink:href="#bv"/><use transform="matrix(0.04938271604938272,0,0,0.04938271604938272,33.580246913580254,0)" xlink:href="#aI"/><use transform="matrix(0.04938271604938272,0,0,0.04938271604938272,43.4567901234568,0)" xlink:href="#aJ"/><use transform="matrix(0.04938271604938272,0,0,0.04938271604938272,53.333333333333336,0)" xlink:href="#bx"/></g><g id="aq"><use transform="matrix(0.05,0,0,0.05,0,0)" xlink:href="#bp"/><use transform="matrix(0.05,0,0,0.05,12,0)" xlink:href="#aP"/><use transform="matrix(0.05,0,0,0.05,17.95,0)" xlink:href="#aZ"/><use transform="matrix(0.05,0,0,0.05,27.950000000000003,0)" xlink:href="#bo"/><use transform="matrix(0.05,0,0,0.05,36.95,0)" xlink:href="#aO"/></g><path fill="#3a414a" d="M145-31C134-9 116 4 85 4 32 4 16-35 15-94c0-59 17-99 70-100 32-1 48 14 60 33 0-11-1-24 2-32h30l-1 268h-32zM93-21c41 0 51-33 51-76s-8-73-50-73c-40 0-46 35-46 75s5 74 45 74" id="bz"/><g id="ar"><use transform="matrix(0.05,0,0,0.05,0,0)" xlink:href="#aP"/><use transform="matrix(0.05,0,0,0.05,5.95,0)" xlink:href="#aO"/><use transform="matrix(0.05,0,0,0.05,15.949999999999998,0)" xlink:href="#bz"/><use transform="matrix(0.05,0,0,0.05,25.950000000000003,0)" xlink:href="#bi"/><use transform="matrix(0.05,0,0,0.05,35.95,0)" xlink:href="#aO"/><use transform="matrix(0.05,0,0,0.05,45.95,0)" xlink:href="#aN"/><use transform="matrix(0.05,0,0,0.05,54.95,0)" xlink:href="#aR"/></g><use transform="matrix(0.05,0,0,0.05,0,0)" xlink:href="#aS" id="as"/><g id="at"><use transform="matrix(0.05,0,0,0.05,0,0)" xlink:href="#bb"/><use transform="matrix(0.05,0,0,0.05,5,0)" xlink:href="#aP"/><use transform="matrix(0.05,0,0,0.05,10.95,0)" xlink:href="#aX"/><use transform="matrix(0.05,0,0,0.05,14.899999999999999,0)" xlink:href="#aO"/><use transform="matrix(0.05,0,0,0.05,24.9,0)" xlink:href="#ba"/><use transform="matrix(0.05,0,0,0.05,34.9,0)" xlink:href="#bc"/></g><path fill="#3a414a" d="M141 0L90-78 38 0H4l68-98-65-92h35l48 74 47-74h35l-64 92 68 98h-35" id="bA"/><g id="au"><use transform="matrix(0.05,0,0,0.05,0,0)" xlink:href="#aO"/><use transform="matrix(0.05,0,0,0.05,10,0)" xlink:href="#bA"/><use transform="matrix(0.05,0,0,0.05,19,0)" xlink:href="#aR"/><use transform="matrix(0.05,0,0,0.05,24,0)" xlink:href="#aO"/><use transform="matrix(0.05,0,0,0.05,34,0)" xlink:href="#ba"/><use transform="matrix(0.05,0,0,0.05,44,0)" xlink:href="#bc"/><use transform="matrix(0.05,0,0,0.05,54,0)" xlink:href="#aN"/></g><g id="aw"><use transform="matrix(0.04938271604938272,0,0,0.04938271604938272,0,0)" xlink:href="#aW"/><use transform="matrix(0.04938271604938272,0,0,0.04938271604938272,10.814814814814815,0)" xlink:href="#aP"/><use transform="matrix(0.04938271604938272,0,0,0.04938271604938272,16.691358024691358,0)" xlink:href="#aX"/><use transform="matrix(0.04938271604938272,0,0,0.04938271604938272,20.59259259259259,0)" xlink:href="#aO"/><use transform="matrix(0.04938271604938272,0,0,0.04938271604938272,30.46913580246914,0)" xlink:href="#ba"/><use transform="matrix(0.04938271604938272,0,0,0.04938271604938272,40.345679012345684,0)" xlink:href="#bc"/></g><g id="ax"><use transform="matrix(0.04938271604938272,0,0,0.04938271604938272,0,0)" xlink:href="#aZ"/><use transform="matrix(0.04938271604938272,0,0,0.04938271604938272,9.876543209876544,0)" xlink:href="#bb"/></g><g id="ay"><use transform="matrix(0.04938271604938272,0,0,0.04938271604938272,0,0)" xlink:href="#bi"/><use transform="matrix(0.04938271604938272,0,0,0.04938271604938272,9.876543209876544,0)" xlink:href="#aN"/><use transform="matrix(0.04938271604938272,0,0,0.04938271604938272,18.765432098765434,0)" xlink:href="#aO"/><use transform="matrix(0.04938271604938272,0,0,0.04938271604938272,28.641975308641978,0)" xlink:href="#aP"/></g><path fill="#3a414a" d="M30-248c118-7 216 8 213 122C240-48 200 0 122 0H30v-248zM63-27c89 8 146-16 146-99s-60-101-146-95v194" id="bB"/><g id="az"><use transform="matrix(0.05,0,0,0.05,0,0)" xlink:href="#bB"/><use transform="matrix(0.05,0,0,0.05,12.950000000000001,0)" xlink:href="#aO"/><use transform="matrix(0.05,0,0,0.05,22.950000000000003,0)" xlink:href="#bf"/><use transform="matrix(0.05,0,0,0.05,31.950000000000003,0)" xlink:href="#aY"/><use transform="matrix(0.05,0,0,0.05,35.900000000000006,0)" xlink:href="#aX"/><use transform="matrix(0.05,0,0,0.05,39.85000000000001,0)" xlink:href="#ba"/><use transform="matrix(0.05,0,0,0.05,49.85000000000001,0)" xlink:href="#aO"/></g><g id="aA"><use transform="matrix(0.05,0,0,0.05,0,0)" xlink:href="#aP"/><use transform="matrix(0.05,0,0,0.05,5.95,0)" xlink:href="#aO"/><use transform="matrix(0.05,0,0,0.05,15.949999999999998,0)" xlink:href="#bz"/><use transform="matrix(0.05,0,0,0.05,25.950000000000003,0)" xlink:href="#bi"/><use transform="matrix(0.05,0,0,0.05,35.95,0)" xlink:href="#aO"/><use transform="matrix(0.05,0,0,0.05,45.95,0)" xlink:href="#aN"/><use transform="matrix(0.05,0,0,0.05,54.95,0)" xlink:href="#aR"/></g><path fill="#3a414a" d="M205 0l-28-72H64L36 0H1l101-248h38L239 0h-34zm-38-99l-47-123c-12 45-31 82-46 123h93" id="bC"/><g id="aB"><use transform="matrix(0.05,0,0,0.05,0,0)" xlink:href="#bC"/><use transform="matrix(0.05,0,0,0.05,12,0)" xlink:href="#bf"/><use transform="matrix(0.05,0,0,0.05,21,0)" xlink:href="#bf"/><use transform="matrix(0.05,0,0,0.05,30,0)" xlink:href="#aO"/><use transform="matrix(0.05,0,0,0.05,40,0)" xlink:href="#bm"/><use transform="matrix(0.05,0,0,0.05,50,0)" xlink:href="#aR"/></g><g id="aC"><use transform="matrix(0.05,0,0,0.05,0,0)" xlink:href="#be"/><use transform="matrix(0.05,0,0,0.05,12.950000000000001,0)" xlink:href="#aO"/><use transform="matrix(0.05,0,0,0.05,22.950000000000003,0)" xlink:href="#bf"/><use transform="matrix(0.05,0,0,0.05,31.950000000000003,0)" xlink:href="#aO"/><use transform="matrix(0.05,0,0,0.05,41.95,0)" xlink:href="#aX"/><use transform="matrix(0.05,0,0,0.05,45.900000000000006,0)" xlink:href="#bg"/><use transform="matrix(0.05,0,0,0.05,54.900000000000006,0)" xlink:href="#aO"/><use transform="matrix(0.05,0,0,0.05,64.9,0)" xlink:href="#bc"/></g><g id="aD"><use transform="matrix(0.05,0,0,0.05,0,0)" xlink:href="#bf"/><use transform="matrix(0.05,0,0,0.05,9,0)" xlink:href="#aT"/><use transform="matrix(0.05,0,0,0.05,19,0)" xlink:href="#aX"/><use transform="matrix(0.05,0,0,0.05,22.95,0)" xlink:href="#bm"/><use transform="matrix(0.05,0,0,0.05,32.95,0)" xlink:href="#aN"/></g><g id="aF"><use transform="matrix(0.05,0,0,0.05,0,0)" xlink:href="#bb"/><use transform="matrix(0.05,0,0,0.05,5,0)" xlink:href="#aP"/><use transform="matrix(0.05,0,0,0.05,10.95,0)" xlink:href="#aZ"/><use transform="matrix(0.05,0,0,0.05,20.95,0)" xlink:href="#aV"/></g></defs></g></svg>